<svg width="64" height="64" version="1.1" viewBox="0 0 64 64" xmlns="http://www.w3.org/2000/svg">
 <rect x="0" y="0" width="64" height="64" fill="#0dbd8b" stop-color="#000000" stroke="#000" stroke-dasharray="0.188976, 0.37795299999999998" stroke-width=".18898"/>
 <g clip-rule="evenodd" fill="#fff" fill-rule="evenodd">
  <path d="m25.28 10.88c0-1.5906 1.2894-2.88 2.88-2.88 10.604 0 19.2 8.5961 19.2 19.2 0 1.5906-1.2894 2.88-2.88 2.88s-2.88-1.2894-2.88-2.88c0-7.4227-6.0173-13.44-13.44-13.44-1.5906 0-2.88-1.2894-2.88-2.88z"/>
  <path d="m38.72 53.12c0 1.5906-1.2894 2.88-2.88 2.88-10.604 0-19.2-8.5961-19.2-19.2 0-1.5906 1.2894-2.88 2.88-2.88 1.5905 0 2.88 1.2894 2.88 2.88 0 7.4227 6.0173 13.44 13.44 13.44 1.5906 0 2.88 1.2894 2.88 2.88z"/>
  <path d="m10.88 38.72c-1.5906 0-2.88-1.2894-2.88-2.88 0-10.604 8.5961-19.2 19.2-19.2 1.5906 0 2.88 1.2894 2.88 2.88 0 1.5905-1.2894 2.88-2.88 2.88-7.4227 0-13.44 6.0173-13.44 13.44 0 1.5906-1.2894 2.88-2.88 2.88z"/>
  <path d="m53.12 25.28c1.5906 0 2.88 1.2894 2.88 2.88 0 10.604-8.5961 19.2-19.2 19.2-1.5906 0-2.88-1.2894-2.88-2.88 0-1.5905 1.2894-2.88 2.88-2.88 7.4227 0 13.44-6.0173 13.44-13.44 0-1.5906 1.2894-2.88 2.88-2.88z"/>
 </g>
</svg>
