<?xml version="1.0" encoding="UTF-8"?>
<svg height="128px" viewBox="0 0 128 128" width="128px" xmlns="http://www.w3.org/2000/svg" xmlns:xlink="http://www.w3.org/1999/xlink">
    <linearGradient id="a" gradientUnits="userSpaceOnUse" x1="8" x2="58" y1="69.999985" y2="69.999985">
        <stop offset="0" stop-color="#4aaac9"/>
        <stop offset="0.16" stop-color="#8bddf7"/>
        <stop offset="0.32" stop-color="#4aaac9"/>
        <stop offset="1" stop-color="#4aaac9"/>
    </linearGradient>
    <linearGradient id="b" gradientUnits="userSpaceOnUse" x1="31.462524" x2="39" y1="113.997253" y2="113.997253">
        <stop offset="0" stop-color="#4aaac9"/>
        <stop offset="0.469318" stop-color="#74d7f7"/>
        <stop offset="1" stop-color="#4aaac9"/>
    </linearGradient>
    <linearGradient id="c" gradientUnits="userSpaceOnUse" x1="104" x2="120" y1="84" y2="84">
        <stop offset="0" stop-color="#1a5fb4"/>
        <stop offset="0.5" stop-color="#4296ff"/>
        <stop offset="1" stop-color="#1a5fb4"/>
    </linearGradient>
    <clipPath id="d">
        <path d="m 8 24 h 97 v 84 h -97 z m 0 0"/>
    </clipPath>
    <clipPath id="e">
        <path d="m 24 24 h 80 c 8.835938 0 16 7.164062 16 16 v 52 c 0 8.835938 -7.164062 16 -16 16 h -80 c -8.835938 0 -16 -7.164062 -16 -16 v -52 c 0 -8.835938 7.164062 -16 16 -16 z m 0 0"/>
    </clipPath>
    <linearGradient id="f" gradientUnits="userSpaceOnUse" x1="55.608135" x2="71.783539" y1="100" y2="48.532928">
        <stop offset="0" stop-color="#81dffe"/>
        <stop offset="1" stop-color="#9bf8fe"/>
    </linearGradient>
    <filter id="g" height="100%" width="100%" x="0%" y="0%">
        <feColorMatrix in="SourceGraphic" type="matrix" values="0 0 0 0 1 0 0 0 0 1 0 0 0 0 1 0 0 0 1 0"/>
    </filter>
    <mask id="h">
        <g filter="url(#g)">
            <rect fill-opacity="0.35" height="128" width="128"/>
        </g>
    </mask>
    <clipPath id="i">
        <rect height="152" width="192"/>
    </clipPath>
    <path d="m 24 28 h 72 c 8.835938 0 16 7.164062 16 16 v 52 c 0 8.835938 -7.164062 16 -16 16 h -72 c -8.835938 0 -16 -7.164062 -16 -16 v -52 c 0 -8.835938 7.164062 -16 16 -16 z m 0 0" fill="url(#a)"/>
    <path d="m 24 28 h 80 c 8.835938 0 16 7.164062 16 16 v 48 c 0 8.835938 -7.164062 16 -16 16 h -80 c -8.835938 0 -16 -7.164062 -16 -16 v -48 c 0 -8.835938 7.164062 -16 16 -16 z m 0 0" fill="#53bde0"/>
    <path d="m 24 100 v 12 h 4 c 2.210938 0 4 1.789062 4 4 v 7 c 0 1.992188 1.183594 3.792969 3.011719 4.585938 c 1.828125 0.789062 3.953125 0.417968 5.40625 -0.945313 l 13.523437 -12.707031 c 1.324219 -1.242188 3.070313 -1.933594 4.882813 -1.933594 h 9.175781 v -12 z m 0 0" fill="url(#b)" fill-rule="evenodd"/>
    <path d="m 102 58.566406 h 2 c 8.835938 0 16 7.164063 16 16 v 21.433594 c 0 8.835938 -7.164062 16 -16 16 h -2 c -8.835938 0 -16 -7.164062 -16 -16 v -21.433594 c 0 -8.835937 7.164062 -16 16 -16 z m 0 0" fill="url(#c)"/>
    <path d="m 86 87 h 18 v 25 h -18 z m 0 0" fill="#1a5fb4"/>
    <path d="m 48 24 h 56 c 8.835938 0 16 7.164062 16 16 v 52 c 0 8.835938 -7.164062 16 -16 16 h -56 c -8.835938 0 -16 -7.164062 -16 -16 v -52 c 0 -8.835938 7.164062 -16 16 -16 z m 0 0" fill="#3584e4"/>
    <g clip-path="url(#d)">
        <g clip-path="url(#e)">
            <path d="m 78.804688 16.023438 l 0.527343 2.460937 c -1.207031 -0.082031 -2.417969 4.964844 -3.621093 4.988281 c -19.335938 0.371094 -38.003907 14.230469 -39.148438 34.546875 c -0.835938 14.761719 9.570312 29.839844 25.15625 30.488281 c 10.371094 0.433594 20.96875 -6.957031 21.242188 -17.925781 c 0.179687 -7.078125 -4.953126 -14.3125 -12.488282 -14.355469 c -4.683594 -0.027343 -9.484375 3.425782 -9.398437 8.429688 c 0.074219 2.980469 2.300781 6.042969 5.511719 5.902344 c 1.8125 -0.082032 3.691406 -1.488282 3.539062 -3.453125 c -0.078125 -1.042969 -0.921875 -2.128907 -2.0625 -1.996094 c -0.5625 0.066406 -1.148438 0.539063 -1.046875 1.15625 c 0.070313 0.273437 0.285156 0.570313 0.597656 0.5 c 0.121094 -0.03125 0.25 -0.144531 0.214844 -0.28125 c 0 -0.042969 -0.070313 -0.09375 -0.113281 -0.074219 c 0 0.003906 -0.070313 0.023438 0 0.035156 v 0.007813 v -0.003906 v 0.035156 c 0 0.050781 -0.09375 0.050781 -0.136719 0.03125 c -0.121094 -0.066406 -0.113281 -0.242187 -0.070313 -0.347656 c 0.164063 -0.265625 0.542969 -0.230469 0.777344 -0.074219 c 0.519532 0.367188 0.429688 1.117188 0.070313 1.558594 c -0.710938 0.898437 -2.074219 0.726562 -2.867188 0.042968 c -1.5 -1.28125 -1.167969 -3.601562 0.070313 -4.941406 c 2.167968 -2.367187 5.929687 -1.792968 8.074218 0.28125 c 3.601563 3.476563 2.652344 9.308594 -0.675781 12.597656 c -5.359375 5.292969 -14.109375 3.800782 -18.992187 -1.324218 c -7.570313 -7.953125 -5.304688 -20.664063 2.335937 -27.6875 c 11.480469 -10.550782 29.507813 -7.242188 39.363281 3.785156 c 14.414063 16.121094 9.6875 41.066406 -5.855468 54.582031 c -11.121094 9.226563 -22.246094 15.429688 -32.949219 19.4375 c -13.058594 75.445313 -75.230469 6.835938 -81.039063 -4.195312 l 0.285157 -105.054688 z m 0 0" fill="url(#f)"/>
        </g>
    </g>
    <path d="m 24 106 v 2 h 4 c 2.210938 0 4 1.789062 4 4 v 7 c 0 1.992188 1.183594 3.792969 3.011719 4.585938 c 1.828125 0.789062 3.953125 0.417968 5.40625 -0.945313 l 13.523437 -12.707031 c 1.324219 -1.242188 3.070313 -1.933594 4.882813 -1.933594 h 9.175781 v -2 z m 0 0" fill="#81dffe" fill-rule="evenodd"/>
    <g clip-path="url(#i)" mask="url(#h)" transform="matrix(1 0 0 1 -8 -16)">
        <path d="m 173 17 h 8 c 1.65625 0 3 1.34375 3 3 v 7 c 0 1.65625 -1.34375 3 -3 3 h -8 c -1.65625 0 -3 -1.34375 -3 -3 v -7 c 0 -1.65625 1.34375 -3 3 -3 z m 0 0" fill="#241f31"/>
    </g>
</svg>
