<svg xmlns="http://www.w3.org/2000/svg" xmlns:svg="http://www.w3.org/2000/svg" xmlns:xlink="http://www.w3.org/1999/xlink" id="svg2" width="48" height="48" version="1.1" viewBox="0 0 48 48"><defs id="defs4"><linearGradient id="b" x1="22.54" x2="42.646" y1="23.775" y2="44.054" gradientTransform="translate(30,0)" gradientUnits="userSpaceOnUse"><stop id="stop12" stop-color="#292c2f"/><stop id="stop14" offset="1" stop-color="#292c2f" stop-opacity="0"/></linearGradient><linearGradient id="linearGradient4416"><stop id="stop4418" offset="0" style="stop-color:#fff;stop-opacity:0"/><stop id="stop4420" offset="1" style="stop-color:#fff;stop-opacity:1"/></linearGradient><style id="current-color-scheme" type="text/css"/><linearGradient id="linearGradient4384-2" x1="-21.261" x2="10.555" y1="13.899" y2="48.902" gradientTransform="translate(18.78125,-16.0625)" gradientUnits="userSpaceOnUse" xlink:href="#b"/><linearGradient id="linearGradient4422-7" x1="-30.501" x2="-10.501" y1="28.25" y2="7.875" gradientTransform="translate(4.0005053,-4.0000137)" gradientUnits="userSpaceOnUse" xlink:href="#linearGradient4416"/><linearGradient id="linearGradient5173" x1="-8.455" x2="10.555" y1="4.962" y2="48.902" gradientTransform="matrix(0.80454501,0,0,0.80454501,29.039903,1009.4479)" gradientUnits="userSpaceOnUse" xlink:href="#b"/><linearGradient id="linearGradient5175" x1="34.251" x2="8.5" y1="-976.614" y2="-1002.614" gradientTransform="matrix(0.89628968,0,0,0.89628968,2.535611,1907.0938)" gradientUnits="userSpaceOnUse" xlink:href="#linearGradient4416"/><linearGradient id="a" x2="0" y1="543.8" y2="503.8" gradientTransform="translate(-384.57,-499.8)" gradientUnits="userSpaceOnUse"><stop id="stop7" stop-color="#197cf1"/><stop id="stop9" offset="1" stop-color="#20bcfa"/></linearGradient><linearGradient id="a-6" x1="432.57" x2="432.57" y1="547.8" y2="500.046" gradientTransform="translate(-432.5705,-499.79999)" gradientUnits="userSpaceOnUse"><stop id="stop4216" stop-color="#18222a" style="stop-color:#1e2b35;stop-opacity:1"/><stop id="stop4218" offset="1" stop-color="#566069" style="stop-color:#525c64;stop-opacity:1"/></linearGradient><linearGradient id="b-7" x1="399.57" x2="416.57" y1="517.8" y2="534.8" gradientTransform="translate(-344.5695,-499.79999)" gradientUnits="userSpaceOnUse"><stop id="stop4221"/><stop id="stop4223" offset="1" stop-opacity="0"/></linearGradient><linearGradient id="c" x2="0" y1="537.8" y2="508.8" gradientTransform="translate(-344.5695,-499.79999)" gradientUnits="userSpaceOnUse"><stop id="stop4226" stop-color="#026ddc"/><stop id="stop4228" offset="1" stop-color="#28b0fd"/></linearGradient><linearGradient id="d" x1="408.65" x2="416.65" y1="525.28" y2="533.28" gradientTransform="translate(-.081-.48)" gradientUnits="userSpaceOnUse"><stop id="stop4231" stop-opacity=".065"/><stop id="stop4233" offset="1" stop-opacity="0"/></linearGradient><linearGradient id="e" x1="417.79" x2="426.22" y1="517.96" y2="525.91" gradientTransform="matrix(-1,0,0,1,817.2,-0.48)" gradientUnits="userSpaceOnUse" xlink:href="#d"/><linearGradient id="b-5" x1="22.285" x2="39.28" y1="18.71" y2="36.633" gradientTransform="translate(-13.182,-16.463)" gradientUnits="userSpaceOnUse"><stop id="stop12-3" stop-color="#292c2f"/><stop id="stop14-5" offset="1" stop-color="#292c2f" stop-opacity="0"/></linearGradient><linearGradient id="b-3" x1="463.305" x2="520.696" y1="791.619" y2="721.561" gradientTransform="matrix(0.71874732,0,0,0.68157806,-378.12417,-491.55024)" gradientUnits="userSpaceOnUse"><stop id="stop4252" stop-color="#26c281" style="stop-color:#00945a;stop-opacity:1"/><stop id="stop4254" offset="1" stop-color="#3fc380" style="stop-color:#38fa95;stop-opacity:1"/></linearGradient><linearGradient id="a-67" x1="404.98" x2="420.98" y1="517.8" y2="533.8" gradientTransform="matrix(0.98828127,0,0,0.98828127,-383.20097,-495.43517)" gradientUnits="userSpaceOnUse"><stop id="stop4247" stop-color="#383e51"/><stop id="stop4249" offset="1" stop-color="#655c6f" stop-opacity="0"/></linearGradient><linearGradient id="c-5" x2="0" y1="531.8" y2="515.8" gradientTransform="matrix(0.98828127,0,0,0.98828127,-378.84265,-493.45861)" gradientUnits="userSpaceOnUse"><stop id="stop4257" stop-color="#70e4b3"/><stop id="stop4259" offset="1" stop-color="#c8f0dc"/></linearGradient><linearGradient id="b-3-3" x2="0" y1="785.71" y2="727.71" gradientTransform="matrix(0.71874732,0,0,0.68157806,-387.2511,-495.98773)" gradientUnits="userSpaceOnUse"><stop id="stop4252-5" stop-color="#26c281"/><stop id="stop4254-6" offset="1" stop-color="#3fc380"/></linearGradient><linearGradient id="b-1" x1="22.54" x2="42.646" y1="23.775" y2="44.054" gradientTransform="translate(-13.130467,-10.269952)" gradientUnits="userSpaceOnUse"><stop id="stop12-2" stop-color="#292c2f"/><stop id="stop14-7" offset="1" stop-color="#292c2f" stop-opacity="0"/></linearGradient><linearGradient id="linearGradient4318-9" x1="-2.86" x2="3.396" y1="32.924" y2="39.179" gradientTransform="translate(7.947106,-34.03464)" gradientUnits="userSpaceOnUse" xlink:href="#b"/><linearGradient id="linearGradient4345-7" x1="-13.672" x2="3.396" y1="39.799" y2="39.179" gradientTransform="translate(14.488281,-20.003906)" gradientUnits="userSpaceOnUse" xlink:href="#b"/><linearGradient id="linearGradient4384-2-2" x1="-22.511" x2="10.555" y1="12.399" y2="48.902" gradientTransform="translate(18.78125,-16.0625)" gradientUnits="userSpaceOnUse" xlink:href="#b"/><linearGradient id="b-36" x1="22.54" x2="42.646" y1="23.775" y2="44.054" gradientTransform="translate(-71.999501,32.001813)" gradientUnits="userSpaceOnUse"><stop id="stop12-7" stop-color="#292c2f"/><stop id="stop14-53" offset="1" stop-color="#292c2f" stop-opacity="0"/></linearGradient><linearGradient id="a-6-5" x1="389.32" x2="426.695" y1="547.675" y2="499.921" gradientTransform="translate(-360.571,-467.79817)" gradientUnits="userSpaceOnUse"><stop id="stop4216-6" stop-color="#18222a" style="stop-color:#1e2b35;stop-opacity:1"/><stop id="stop4218-2" offset="1" stop-color="#566069" style="stop-color:#6d7983;stop-opacity:1"/></linearGradient></defs><metadata id="metadata7"/><g id="layer2"><path style="color:#000;clip-rule:nonzero;display:inline;overflow:visible;visibility:visible;opacity:1;isolation:auto;mix-blend-mode:normal;color-interpolation:sRGB;color-interpolation-filters:linearRGB;solid-color:#000;solid-opacity:1;fill:#1d99f3;fill-opacity:1;fill-rule:nonzero;stroke-width:1;stroke-linecap:butt;stroke-linejoin:miter;stroke-miterlimit:4;stroke-dasharray:none;stroke-dashoffset:0;stroke-opacity:1;color-rendering:auto;image-rendering:auto;shape-rendering:auto;text-rendering:auto;enable-background:accumulate" id="path5159" d="m 24.04876,6.1174361 c -9.930889,0 -17.925793,7.9949039 -17.925793,17.9257939 0,9.930889 7.994904,17.925793 17.925793,17.925793 0.02411,0 0.04771,-0.0017 0.07178,-0.0018 l 16.955978,4.3e-5 c 0.496545,0 0.89629,-0.399737 0.89629,-0.89629 l 0,-16.961232 c 8.1e-5,-0.02232 0.0018,-0.04418 0.0018,-0.06652 0,-9.930889 -7.994904,-17.9257934 -17.925795,-17.9257934 z"/></g><g id="layer1" transform="translate(0,-1004.3622)"><path id="path5163" d="m 6.1310739,1028.8503 c -0.00358,-0.1498 -0.010755,-0.2976 -0.010755,-0.4483 0,-9.9308 7.994904,-17.9257 17.925794,-17.9257 9.93089,0 17.925795,7.9949 17.925795,17.9257 0,0.1507 -0.0072,0.2985 -0.01076,0.4483 -0.23662,-9.7221 -8.138312,-17.4777 -17.91504,-17.4777 -9.780313,0 -17.6784177,7.7556 -17.9150382,17.4777" style="opacity:.3;fill:#fff;fill-opacity:1;stroke-width:2.79999995;stroke-opacity:.55"/><path style="color:#000;clip-rule:nonzero;display:inline;overflow:visible;visibility:visible;opacity:.18800001;isolation:auto;mix-blend-mode:normal;color-interpolation:sRGB;color-interpolation-filters:linearRGB;solid-color:#000;solid-opacity:1;fill:url(#linearGradient5173);fill-opacity:1;fill-rule:nonzero;stroke:none;stroke-width:1;stroke-linecap:butt;stroke-linejoin:miter;stroke-miterlimit:4;stroke-dasharray:none;stroke-dashoffset:0;stroke-opacity:1;color-rendering:auto;image-rendering:auto;shape-rendering:auto;text-rendering:auto;enable-background:accumulate" id="path5165" d="m 11.232155,1026.802 14.222481,14.2935 -3.520064,-0.3911 -9.191278,-9.1912 2.684492,7.5202 6.204245,6.2684 2.49952,0.1156 17.241676,-0.023 0.640018,-1.0668 -0.05709,-14.8384 -0.0649,-1.7857 -8.756475,-8.7243 -0.64001,0.8532 -3.555621,-3.6266 -10.240187,0.64 -4.76453,4.1244 z"/><path style="color:#000;clip-rule:nonzero;display:inline;overflow:visible;visibility:visible;opacity:.3;isolation:auto;mix-blend-mode:normal;color-interpolation:sRGB;color-interpolation-filters:linearRGB;solid-color:#000;solid-opacity:1;fill:#161e25;fill-opacity:1;fill-rule:nonzero;stroke-width:2.79999995;stroke-linecap:butt;stroke-linejoin:miter;stroke-miterlimit:4;stroke-dasharray:none;stroke-dashoffset:0;stroke-opacity:.55;color-rendering:auto;image-rendering:auto;shape-rendering:auto;text-rendering:auto;enable-background:accumulate" id="path5167" d="m 6.1334706,1027.9574 c -0.00367,0.1495 -0.010504,0.2976 -0.010504,0.448 0,9.9309 7.9949037,17.9258 17.9257927,17.9258 0.02411,0 0.04771,0 0.07178,0 l 16.955981,0 c 0.496544,0 0.896289,-0.3996 0.896289,-0.8962 l 0,-0.8945 c 0,0.4965 -0.399745,0.8963 -0.896289,0.8963 l -16.955983,0 -0.07178,0 c -9.78071,0 -17.6785062,-7.7561 -17.9152898,-17.4777 z m 35.8393324,0.3763 0,0.1383 c 8.2e-5,-0.022 0.0018,-0.044 0.0018,-0.066 0,-0.024 -0.0018,-0.048 -0.0018,-0.072 z"/><path style="color:#000;clip-rule:nonzero;display:inline;overflow:visible;visibility:visible;opacity:1;isolation:auto;mix-blend-mode:normal;color-interpolation:sRGB;color-interpolation-filters:linearRGB;solid-color:#000;solid-opacity:1;fill:#fff;fill-opacity:1;fill-rule:nonzero;stroke:none;stroke-width:.63318729;stroke-linecap:butt;stroke-linejoin:miter;stroke-miterlimit:4;stroke-dasharray:none;stroke-dashoffset:0;stroke-opacity:1;marker:none;color-rendering:auto;image-rendering:auto;shape-rendering:auto;text-rendering:auto;enable-background:accumulate" id="path5169" d="m 24.850998,1015.3211 -2.3e-4,0 c -4.221957,-0.2137 -8.462616,1.6173 -11.185311,5.279 -1.410567,1.8989 -2.22395,4.0471 -2.493121,6.2301 l 1.696347,-0.2507 3.220344,-0.4718 2.68403,-2.0567 -5.463182,0.8056 c 0.374562,-1.1444 0.916754,-2.2533 1.67664,-3.2759 2.961145,-3.9843 7.972375,-5.4929 12.459008,-4.168 l 1.563639,-1.1933 c -1.347181,-0.5332 -2.750838,-0.8302 -4.158164,-0.9015 z m 6.710874,2.5126 -4.6e-4,0.01 -0.521308,1.6335 -0.859253,2.6992 0.499033,3.8383 1.715908,-5.384 c 0.863373,0.8389 1.619917,1.8132 2.204556,2.9452 2.442167,4.7279 1.298074,10.3196 -2.445266,13.7365 l 0.0072,0.053 c -0.02757,0.026 -0.05527,0.055 -0.0831,0.081 l 4.152714,4.8087 1.274973,-1.1026 -3.204232,-3.7103 c 3.427251,-3.9365 4.309935,-9.6879 1.761636,-14.6216 -1.086112,-2.1028 -2.658768,-3.7804 -4.502389,-4.9823 z m -20.627884,12.8598 c 0.795585,5.8959 5.518184,10.6684 11.708243,11.2806 2.355072,0.2329 4.622679,-0.1736 6.634024,-1.0664 l -1.086358,-1.3241 -0.0062,-5e-4 -2.138088,-2.6048 -3.22492,-1.339 3.657256,4.4524 c -1.173938,0.2676 -2.40585,0.375 -3.673603,0.2496 -5.070346,-0.501 -9.016389,-4.197 -10.072229,-8.8986 z"/><path id="path5171" d="m 24.04876,1010.4797 c -9.930889,0 -17.925793,7.9949 -17.925793,17.9257 0,9.9309 7.994904,17.9258 17.925793,17.9258 0.02411,0 0.04771,0 0.07178,0 l 16.955978,0 c 0.496545,0 0.89629,-0.3996 0.89629,-0.8962 l 0,-16.9612 c 8.1e-5,-0.022 0.0018,-0.044 0.0018,-0.066 0,-9.931 -7.994902,-17.9259 -17.925793,-17.9259 z" style="color:#000;clip-rule:nonzero;display:inline;overflow:visible;visibility:visible;opacity:.45;isolation:auto;mix-blend-mode:normal;color-interpolation:sRGB;color-interpolation-filters:linearRGB;solid-color:#000;solid-opacity:1;fill:url(#linearGradient5175);fill-opacity:1;fill-rule:nonzero;stroke-width:1;stroke-linecap:butt;stroke-linejoin:miter;stroke-miterlimit:4;stroke-dasharray:none;stroke-dashoffset:0;stroke-opacity:1;color-rendering:auto;image-rendering:auto;shape-rendering:auto;text-rendering:auto;enable-background:accumulate"/></g></svg>