<svg xmlns="http://www.w3.org/2000/svg" xmlns:svg="http://www.w3.org/2000/svg" xmlns:xlink="http://www.w3.org/1999/xlink" id="svg8" width="64" height="64" version="1.1"><defs id="defs2"><linearGradient id="linearGradient891"><stop style="stop-color:#0e16be;stop-opacity:1" id="stop887" offset="0"/><stop style="stop-color:#63a4e1;stop-opacity:1" id="stop889" offset="1"/></linearGradient><linearGradient id="linearGradient883"><stop style="stop-color:#008726;stop-opacity:1" id="stop879" offset="0"/><stop style="stop-color:#7ecc6f;stop-opacity:1" id="stop881" offset="1"/></linearGradient><linearGradient id="linearGradient885" x1="115.094" x2="26.988" y1="42.862" y2="42.862" gradientUnits="userSpaceOnUse" xlink:href="#linearGradient883"/><linearGradient id="linearGradient893" x1="60.854" x2="60.854" y1="97.102" y2="62.706" gradientUnits="userSpaceOnUse" xlink:href="#linearGradient891"/><filter style="color-interpolation-filters:sRGB" id="filter5519"><feFlood id="feFlood5509" flood-color="#000" flood-opacity=".604" result="flood"/><feComposite id="feComposite5511" in="flood" in2="SourceGraphic" operator="in" result="composite1"/><feGaussianBlur id="feGaussianBlur5513" in="composite1" result="blur" stdDeviation=".5"/><feOffset id="feOffset5515" dx="1.9" dy="1.4" result="offset"/><feComposite id="feComposite5517" in="SourceGraphic" in2="offset" operator="over" result="fbSourceGraphic"/></filter><filter style="color-interpolation-filters:sRGB" id="filter5531"><feFlood id="feFlood5521" flood-color="#000" flood-opacity=".601" result="flood"/><feComposite id="feComposite5523" in="flood" in2="SourceGraphic" operator="in" result="composite1"/><feGaussianBlur id="feGaussianBlur5525" in="composite1" result="blur" stdDeviation=".5"/><feOffset id="feOffset5527" dx="1.9" dy="1.4" result="offset"/><feComposite id="feComposite5529" in="SourceGraphic" in2="offset" operator="over" result="fbSourceGraphic"/></filter></defs><metadata id="metadata5"/><g id="layer2" transform="translate(-59.26667,-59.26667)" style="display:inline"><path style="fill:url(#linearGradient885);fill-opacity:1;stroke:none;stroke-width:.26458335px;stroke-linecap:butt;stroke-linejoin:miter;stroke-opacity:1;filter:url(#filter5519)" id="path195" d="m 121.70834,29.368751 -68.262505,1.5875 c -6.711747,0.156087 -13.464507,2.719336 -18.785501,7.005035 -5.124508,4.228038 -8.190215,10.463836 -9.7895,16.807465 l 24.341667,-1.058333 c 0.214884,-2.67862 1.733902,-5.109484 3.689147,-6.885223 1.76299,-1.5286 4.013062,-2.554657 6.365024,-2.639795 l 58.472918,-2.116649 z" transform="matrix(0.47244092,0,0,0.47244092,59.26667,59.26667)"/><path style="fill:url(#linearGradient893);fill-opacity:1;stroke:none;stroke-width:.26458335px;stroke-linecap:butt;stroke-linejoin:miter;stroke-opacity:1;filter:url(#filter5531)" id="path32" d="m 22.489584,61.647918 -10.31875,27.252084 c -1.362514,3.598435 -1.128016,8.11836 1.70141,10.913234 3.337143,3.296424 8.403518,3.779984 12.85067,3.374224 l 72.495838,-6.614541 16.139588,-47.625001 -20.637504,0.79375 -12.435417,35.189584 -11.112501,0.79375 12.435417,-35.454167 -22.225,1.058333 -13.229167,36.512501 -7.408314,0.264613 c -2.145162,0.07662 -3.30664,-2.908063 -2.645853,-4.76253 l 8.202083,-23.01875 z" transform="matrix(0.47244092,0,0,0.47244092,59.26667,59.26667)"/></g></svg>