<svg width="136" height="40" viewBox="0 0 136 40" fill="none" xmlns="http://www.w3.org/2000/svg">
<rect x="0.664062" width="135" height="40" rx="5" fill="black"/>
<path fill-rule="evenodd" clip-rule="evenodd" d="M5.66406 0H130.664C133.425 0 135.664 2.23858 135.664 5V35C135.664 37.7614 133.425 40 130.664 40H5.66406C2.90264 40 0.664062 37.7614 0.664062 35V5C0.664062 2.23858 2.90264 0 5.66406 0ZM134.864 5C134.864 2.6804 132.984 0.8 130.664 0.8H5.66406C3.34447 0.8 1.46406 2.6804 1.46406 5V35C1.46406 37.3196 3.34447 39.2 5.66406 39.2H130.664C132.984 39.2 134.864 37.3196 134.864 35V5Z" fill="#A6A6A6"/>
<path fill-rule="evenodd" clip-rule="evenodd" d="M48.4042 23.0601V24.8601H52.7242C52.6564 25.7079 52.304 26.5079 51.7242 27.1301C50.8502 28.0204 49.6407 28.4998 48.3942 28.4501C45.7432 28.4501 43.5942 26.3011 43.5942 23.6501C43.5942 20.9992 45.7432 18.8501 48.3942 18.8501C49.612 18.8303 50.7879 19.2942 51.6642 20.1401L52.9342 18.8701C51.7391 17.66 50.1049 16.9854 48.4042 17.0001C45.9831 16.9059 43.7046 18.1438 42.466 20.2262C41.2275 22.3086 41.2275 24.9017 42.466 26.9841C43.7046 29.0665 45.9831 30.3044 48.4042 30.2101C50.1359 30.2884 51.8169 29.6138 53.0142 28.3601C54.0618 27.2091 54.6212 25.6959 54.5742 24.1401C54.5774 23.7611 54.5439 23.3827 54.4742 23.0101L48.4042 23.0601ZM59.4942 21.7501C57.1483 21.7557 55.2505 23.6609 55.2542 26.0068C55.2578 28.3527 57.1616 30.252 59.5075 30.2501C61.8534 30.2483 63.7542 28.346 63.7542 26.0001C63.7706 24.8645 63.3254 23.7708 62.5204 22.9696C61.7154 22.1684 60.6197 21.7283 59.4842 21.7501H59.4942ZM64.5742 26.0134C64.5668 23.6688 66.4596 21.7612 68.8042 21.7501C69.9397 21.7283 71.0354 22.1684 71.8404 22.9696C72.6454 23.7708 73.0906 24.8645 73.0742 26.0001C73.0741 28.3447 71.1754 30.2464 68.8308 30.2501C66.4862 30.2537 64.5815 28.358 64.5742 26.0134ZM66.2962 27.1186C66.7528 28.0745 67.7474 28.654 68.8042 28.5801C69.4675 28.5648 70.0964 28.2821 70.5483 27.7963C71.0002 27.3105 71.2367 26.6628 71.2042 26.0001C71.2016 24.9408 70.5517 23.9907 69.5653 23.6042C68.579 23.2178 67.4567 23.4735 66.7351 24.2492C66.0136 25.0248 65.8395 26.1627 66.2962 27.1186ZM56.9795 27.1262C57.4394 28.0815 58.4368 28.6582 59.4942 28.5801H59.4842C60.1475 28.5648 60.7764 28.2821 61.2283 27.7963C61.6802 27.3105 61.9167 26.6628 61.8842 26.0001C61.8813 24.9399 61.2301 23.9894 60.2425 23.6038C59.2549 23.2182 58.132 23.4761 57.4115 24.2538C56.691 25.0316 56.5196 26.171 56.9795 27.1262ZM90.0742 21.7501C91.7321 21.8112 93.1802 22.8893 93.7142 24.4601L93.9242 24.9101L88.2342 27.2601C88.5908 28.0723 89.4077 28.5839 90.2942 28.5501C91.15 28.5523 91.9439 28.1041 92.3842 27.3701L93.8342 28.3701C93.0448 29.5516 91.715 30.2578 90.2942 30.2501C89.1647 30.2667 88.0771 29.8233 87.2812 29.0217C86.4853 28.2202 86.0496 27.1294 86.0742 26.0001C86.0051 24.8967 86.3958 23.8138 87.1535 23.0087C87.9113 22.2035 88.9685 21.748 90.0742 21.7501ZM87.9142 25.8801C87.8732 25.2553 88.0855 24.6403 88.5031 24.1737C88.9208 23.7072 89.5086 23.4284 90.1342 23.4001C90.7935 23.3567 91.4152 23.7108 91.7142 24.3001L87.9142 25.8801ZM85.1642 30.0001H83.2942V17.5001H85.1642V30.0001ZM80.2342 22.7001H80.1642C79.5941 22.0628 78.7792 21.699 77.9242 21.7001C75.6543 21.8102 73.8705 23.6826 73.8705 25.9551C73.8705 28.2277 75.6543 30.1001 77.9242 30.2101C78.782 30.2246 79.6022 29.8584 80.1642 29.2101H80.2242V29.8201C80.2242 31.4501 79.3542 32.3201 77.9542 32.3201C77.0005 32.2978 76.1549 31.7012 75.8142 30.8101L74.1842 31.4901C74.8118 33.0169 76.3034 34.01 77.9542 34.0001C80.1442 34.0001 81.9542 32.7101 81.9542 29.5701V22.0001H80.2342V22.7001ZM78.0911 28.5799L78.0942 28.5801H78.0842L78.0911 28.5799ZM79.7761 27.7779C79.347 28.2636 78.7384 28.5531 78.0911 28.5799C76.7555 28.4606 75.7315 27.3414 75.7315 26.0001C75.7315 24.6578 76.757 23.538 78.0942 23.4201C78.7403 23.4533 79.3456 23.7459 79.773 24.2316C80.2004 24.7174 80.4135 25.3551 80.3642 26.0001C80.4193 26.6482 80.2068 27.2906 79.7761 27.7779ZM102.474 17.5001H98.0042V30.0001H99.8742V25.2601H102.484C103.937 25.3645 105.326 24.6486 106.084 23.4051C106.842 22.1616 106.842 20.5987 106.084 19.3552C105.326 18.1116 103.937 17.3958 102.484 17.5001H102.474ZM99.8642 23.5001H102.474L102.514 23.5301C103.699 23.5301 104.659 22.5698 104.659 21.3851C104.659 20.2005 103.699 19.2401 102.514 19.2401H99.8642V23.5001ZM114.004 21.7001C112.613 21.617 111.305 22.3672 110.674 23.6101L112.334 24.3001C112.669 23.6838 113.335 23.323 114.034 23.3801C114.514 23.3241 114.996 23.4631 115.372 23.7658C115.748 24.0686 115.986 24.5097 116.034 24.9901V25.1201C115.434 24.8021 114.764 24.6373 114.084 24.6401C112.294 24.6401 110.484 25.6401 110.484 27.4501C110.52 28.2298 110.869 28.962 111.453 29.4799C112.037 29.9979 112.806 30.2577 113.584 30.2001C114.543 30.269 115.464 29.8089 115.984 29.0001H116.044V30.0001H117.844V25.1901C117.844 23.0001 116.184 21.7301 114.054 21.7301L114.004 21.7001ZM112.314 27.4901C112.314 28.2401 113.164 28.5501 113.774 28.5501L113.824 28.5801C114.951 28.5527 115.885 27.6996 116.014 26.5801C115.495 26.2905 114.908 26.1455 114.314 26.1601C113.374 26.1601 112.314 26.4901 112.314 27.4901ZM124.404 22.0001L122.264 27.4201H122.204L119.984 22.0001H117.984L121.314 29.5801L119.414 33.7901H121.364L126.484 22.0001H124.404ZM109.464 30.0001H107.594V17.5001H109.464V30.0001Z" fill="white"/>
<path fill-rule="evenodd" clip-rule="evenodd" d="M69.8742 7.76997C68.6945 9.01874 68.6945 10.9712 69.8742 12.22C71.0912 13.4302 73.0572 13.4302 74.2742 12.22C75.459 10.9732 75.459 9.01673 74.2742 7.76997C73.6922 7.18372 72.9003 6.854 72.0742 6.854C71.2481 6.854 70.4562 7.18372 69.8742 7.76997ZM47.3342 12.24C47.8475 11.7041 48.1186 10.9812 48.0842 10.24C48.0843 10.0891 48.0709 9.93849 48.0442 9.78997H45.1342V10.51H47.3042C47.2894 10.9635 47.1119 11.3965 46.8042 11.73C46.1188 12.3925 45.1021 12.5776 44.2272 12.1992C43.3522 11.8208 42.7908 10.9532 42.8042 9.99997C42.7825 9.36919 43.0186 8.75676 43.4583 8.30391C43.8979 7.85106 44.5031 7.59687 45.1342 7.59997C45.7621 7.56566 46.3696 7.82865 46.7742 8.30997L47.3042 7.77997C47.0482 7.48553 46.7261 7.25592 46.3642 7.10997C45.9756 6.94364 45.557 6.85856 45.1342 6.85997C44.3048 6.84149 43.5048 7.1673 42.9242 7.75997C42.0308 8.65929 41.7635 10.0066 42.2459 11.1789C42.7284 12.3512 43.8666 13.12 45.1342 13.13C45.9607 13.1594 46.7607 12.8358 47.3342 12.24ZM49.9642 7.73997H52.6642V6.99997H49.1642V13H52.6642V12.26H49.9642V10.36H52.4242V9.63997H49.9642V7.73997ZM55.9442 13H55.1742V7.73997H53.4942V6.99997H57.6642V7.73997H55.9442V13ZM61.3742 6.99997H60.6042V13H61.3742V6.99997ZM64.7942 13H64.0242V7.73997H62.3442V6.99997H66.4642V7.73997H64.7942V13ZM77.1842 6.99997H76.2442V13H77.0242V8.10997L80.0742 13H80.8742V6.99997H80.1042V11.67L77.1842 6.99997ZM70.4442 11.72C71.3455 12.6175 72.8029 12.6175 73.7042 11.72C74.5894 10.7441 74.5894 9.2558 73.7042 8.27997C72.8029 7.38241 71.3455 7.38241 70.4442 8.27997C69.559 9.2558 69.559 10.7441 70.4442 11.72Z" fill="white"/>
<path d="M69.8742 12.22L69.8015 12.2887L69.8037 12.2909L69.8742 12.22ZM69.8742 7.76997L69.8032 7.6995L69.8015 7.7013L69.8742 7.76997ZM74.2742 12.22L74.3448 12.2909L74.3467 12.2889L74.2742 12.22ZM74.2742 7.76997L74.3467 7.70107L74.3452 7.69952L74.2742 7.76997ZM48.0842 10.24L47.9841 10.2399L47.9843 10.2446L48.0842 10.24ZM47.3342 12.24L47.4063 12.3093L47.4064 12.3091L47.3342 12.24ZM48.0442 9.78997L48.1427 9.77229L48.1279 9.68997H48.0442V9.78997ZM45.1342 9.78997V9.68997H45.0342V9.78997H45.1342ZM45.1342 10.51H45.0342V10.61H45.1342V10.51ZM47.3042 10.51L47.4042 10.5132L47.4075 10.41H47.3042V10.51ZM46.8042 11.73L46.8738 11.802L46.8777 11.7978L46.8042 11.73ZM44.2272 12.1992L44.1875 12.291H44.1875L44.2272 12.1992ZM42.8042 9.99997L42.9043 10.0014L42.9042 9.99652L42.8042 9.99997ZM43.4583 8.30391L43.3865 8.23425L43.4583 8.30391ZM45.1342 7.59997L45.1337 7.70015L45.1397 7.69982L45.1342 7.59997ZM46.7742 8.30997L46.6977 8.37432L46.7678 8.45778L46.8449 8.38068L46.7742 8.30997ZM47.3042 7.77997L47.3749 7.85068L47.4409 7.78474L47.3797 7.71436L47.3042 7.77997ZM46.3642 7.10997L46.3249 7.20193L46.3268 7.20271L46.3642 7.10997ZM45.1342 6.85997L45.132 6.95998L45.1346 6.95997L45.1342 6.85997ZM42.9242 7.75997L42.9952 7.83045L42.9957 7.82995L42.9242 7.75997ZM42.2459 11.1789L42.1534 11.2169L42.2459 11.1789ZM45.1342 13.13L45.1378 13.03L45.135 13.03L45.1342 13.13ZM52.6642 7.73997V7.83997H52.7642V7.73997H52.6642ZM49.9642 7.73997V7.63997H49.8642V7.73997H49.9642ZM52.6642 6.99997H52.7642V6.89997H52.6642V6.99997ZM49.1642 6.99997V6.89997H49.0642V6.99997H49.1642ZM49.1642 13H49.0642V13.1H49.1642V13ZM52.6642 13V13.1H52.7642V13H52.6642ZM52.6642 12.26H52.7642V12.16H52.6642V12.26ZM49.9642 12.26H49.8642V12.36H49.9642V12.26ZM49.9642 10.36V10.26H49.8642V10.36H49.9642ZM52.4242 10.36V10.46H52.5242V10.36H52.4242ZM52.4242 9.63997H52.5242V9.53997H52.4242V9.63997ZM49.9642 9.63997H49.8642V9.73997H49.9642V9.63997ZM55.1742 13H55.0742V13.1H55.1742V13ZM55.9442 13V13.1H56.0442V13H55.9442ZM55.1742 7.73997H55.2742V7.63997H55.1742V7.73997ZM53.4942 7.73997H53.3942V7.83997H53.4942V7.73997ZM53.4942 6.99997V6.89997H53.3942V6.99997H53.4942ZM57.6642 6.99997H57.7642V6.89997H57.6642V6.99997ZM57.6642 7.73997V7.83997H57.7642V7.73997H57.6642ZM55.9442 7.73997V7.63997H55.8442V7.73997H55.9442ZM60.6042 6.99997V6.89997H60.5042V6.99997H60.6042ZM61.3742 6.99997H61.4742V6.89997H61.3742V6.99997ZM60.6042 13H60.5042V13.1H60.6042V13ZM61.3742 13V13.1H61.4742V13H61.3742ZM64.0242 13H63.9242V13.1H64.0242V13ZM64.7942 13V13.1H64.8942V13H64.7942ZM64.0242 7.73997H64.1242V7.63997H64.0242V7.73997ZM62.3442 7.73997H62.2442V7.83997H62.3442V7.73997ZM62.3442 6.99997V6.89997H62.2442V6.99997H62.3442ZM66.4642 6.99997H66.5642V6.89997H66.4642V6.99997ZM66.4642 7.73997V7.83997H66.5642V7.73997H66.4642ZM64.7942 7.73997V7.63997H64.6942V7.73997H64.7942ZM76.2442 6.99997V6.89997H76.1442V6.99997H76.2442ZM77.1842 6.99997L77.269 6.94695L77.2396 6.89997H77.1842V6.99997ZM76.2442 13H76.1442V13.1H76.2442V13ZM77.0242 13V13.1H77.1242V13H77.0242ZM77.0242 8.10997L77.1091 8.05705L76.9242 7.76069V8.10997H77.0242ZM80.0742 13L79.9894 13.0529L80.0187 13.1H80.0742V13ZM80.8742 13V13.1H80.9742V13H80.8742ZM80.8742 6.99997H80.9742V6.89997H80.8742V6.99997ZM80.1042 6.99997V6.89997H80.0042V6.99997H80.1042ZM80.1042 11.67L80.0194 11.723L80.2042 12.0185V11.67H80.1042ZM73.7042 11.72L73.7749 11.7909L73.7783 11.7872L73.7042 11.72ZM70.4442 11.72L70.3701 11.7872L70.3737 11.7908L70.4442 11.72ZM73.7042 8.27997L73.7784 8.2127L73.7748 8.20911L73.7042 8.27997ZM70.4442 8.27997L70.3736 8.20902L70.3702 8.21278L70.4442 8.27997ZM69.9469 12.1513C68.8036 10.9411 68.8036 9.04887 69.9469 7.83864L69.8015 7.7013C68.5854 8.98861 68.5854 11.0013 69.8015 12.2886L69.9469 12.1513ZM74.2037 12.1491C73.0257 13.3205 71.1227 13.3205 69.9447 12.1491L69.8037 12.2909C71.0597 13.5399 73.0887 13.5399 74.3447 12.2909L74.2037 12.1491ZM74.2017 7.83886C75.3498 9.04702 75.3498 10.9429 74.2017 12.1511L74.3467 12.2889C75.5682 11.0035 75.5682 8.98644 74.3467 7.70109L74.2017 7.83886ZM72.0742 6.954C72.8737 6.954 73.64 7.27308 74.2033 7.84042L74.3452 7.69952C73.7444 7.09435 72.927 6.754 72.0742 6.754V6.954ZM69.9452 7.84042C70.5084 7.27308 71.2748 6.954 72.0742 6.954V6.754C71.2215 6.754 70.404 7.09435 69.8033 7.69952L69.9452 7.84042ZM47.9843 10.2446C48.0174 10.9585 47.7563 11.6547 47.262 12.1708L47.4064 12.3091C47.9387 11.7535 48.2197 11.0039 48.1841 10.2353L47.9843 10.2446ZM47.9458 9.80765C47.9714 9.95032 47.9843 10.095 47.9842 10.2399L48.1842 10.24C48.1843 10.0832 48.1704 9.92666 48.1427 9.77229L47.9458 9.80765ZM45.1342 9.88997H48.0442V9.68997H45.1342V9.88997ZM45.2342 10.51V9.78997H45.0342V10.51H45.2342ZM47.3042 10.41H45.1342V10.61H47.3042V10.41ZM46.8777 11.7978C47.2017 11.4467 47.3886 10.9907 47.4042 10.5132L47.2043 10.5067C47.1902 10.9362 47.0222 11.3463 46.7307 11.6622L46.8777 11.7978ZM44.1875 12.291C45.0995 12.6855 46.1593 12.4925 46.8737 11.8019L46.7347 11.6581C46.0784 12.2925 45.1047 12.4698 44.2669 12.1074L44.1875 12.291ZM42.7042 9.99857C42.6903 10.9921 43.2754 11.8966 44.1875 12.291L44.2669 12.1074C43.429 11.7451 42.8914 10.9142 42.9042 10.0014L42.7042 9.99857ZM43.3865 8.23425C42.9279 8.70662 42.6816 9.34545 42.7043 10.0034L42.9042 9.99652C42.8833 9.39293 43.1093 8.8069 43.53 8.37357L43.3865 8.23425ZM45.1347 7.49997C44.4764 7.49674 43.8451 7.76188 43.3865 8.23425L43.53 8.37357C43.9507 7.94023 44.5298 7.69701 45.1337 7.69997L45.1347 7.49997ZM46.8508 8.24562C46.4259 7.74023 45.788 7.46409 45.1288 7.50012L45.1397 7.69982C45.7362 7.66723 46.3133 7.91706 46.6977 8.37432L46.8508 8.24562ZM47.2335 7.70926L46.7035 8.23926L46.8449 8.38068L47.3749 7.85068L47.2335 7.70926ZM46.3268 7.20271C46.674 7.34276 46.9831 7.56306 47.2288 7.84559L47.3797 7.71436C47.1133 7.40799 46.7781 7.16909 46.4016 7.01723L46.3268 7.20271ZM45.1346 6.95997C45.5437 6.95861 45.9488 7.04094 46.3249 7.20191L46.4036 7.01804C46.0024 6.84634 45.5703 6.75852 45.1339 6.75997L45.1346 6.95997ZM42.9957 7.82995C43.5568 7.25703 44.3302 6.94208 45.132 6.95995L45.1365 6.76C44.2794 6.7409 43.4527 7.07757 42.8528 7.69L42.9957 7.82995ZM42.3384 11.1408C41.8713 10.0057 42.1301 8.70122 42.9952 7.83045L42.8533 7.68949C41.9315 8.61736 41.6557 10.0074 42.1534 11.2169L42.3384 11.1408ZM45.135 13.03C43.9076 13.0204 42.8055 12.2759 42.3384 11.1408L42.1534 11.2169C42.6512 12.4265 43.8255 13.2197 45.1334 13.23L45.135 13.03ZM47.2622 12.1706C46.7083 12.7459 45.9359 13.0584 45.1378 13.03L45.1307 13.2299C45.9856 13.2603 46.813 12.9256 47.4063 12.3093L47.2622 12.1706ZM52.6642 7.63997H49.9642V7.83997H52.6642V7.63997ZM52.5642 6.99997V7.73997H52.7642V6.99997H52.5642ZM49.1642 7.09997H52.6642V6.89997H49.1642V7.09997ZM49.2642 13V6.99997H49.0642V13H49.2642ZM52.6642 12.9H49.1642V13.1H52.6642V12.9ZM52.5642 12.26V13H52.7642V12.26H52.5642ZM49.9642 12.36H52.6642V12.16H49.9642V12.36ZM49.8642 10.36V12.26H50.0642V10.36H49.8642ZM52.4242 10.26H49.9642V10.46H52.4242V10.26ZM52.3242 9.63997V10.36H52.5242V9.63997H52.3242ZM49.9642 9.73997H52.4242V9.53997H49.9642V9.73997ZM49.8642 7.73997V9.63997H50.0642V7.73997H49.8642ZM55.1742 13.1H55.9442V12.9H55.1742V13.1ZM55.0742 7.73997V13H55.2742V7.73997H55.0742ZM53.4942 7.83997H55.1742V7.63997H53.4942V7.83997ZM53.3942 6.99997V7.73997H53.5942V6.99997H53.3942ZM57.6642 6.89997H53.4942V7.09997H57.6642V6.89997ZM57.7642 7.73997V6.99997H57.5642V7.73997H57.7642ZM55.9442 7.83997H57.6642V7.63997H55.9442V7.83997ZM56.0442 13V7.73997H55.8442V13H56.0442ZM60.6042 7.09997H61.3742V6.89997H60.6042V7.09997ZM60.7042 13V6.99997H60.5042V13H60.7042ZM61.3742 12.9H60.6042V13.1H61.3742V12.9ZM61.2742 6.99997V13H61.4742V6.99997H61.2742ZM64.0242 13.1H64.7942V12.9H64.0242V13.1ZM63.9242 7.73997V13H64.1242V7.73997H63.9242ZM62.3442 7.83997H64.0242V7.63997H62.3442V7.83997ZM62.2442 6.99997V7.73997H62.4442V6.99997H62.2442ZM66.4642 6.89997H62.3442V7.09997H66.4642V6.89997ZM66.5642 7.73997V6.99997H66.3642V7.73997H66.5642ZM64.7942 7.83997H66.4642V7.63997H64.7942V7.83997ZM64.8942 13V7.73997H64.6942V13H64.8942ZM76.2442 7.09997H77.1842V6.89997H76.2442V7.09997ZM76.3442 13V6.99997H76.1442V13H76.3442ZM77.0242 12.9H76.2442V13.1H77.0242V12.9ZM76.9242 8.10997V13H77.1242V8.10997H76.9242ZM80.1591 12.947L77.1091 8.05705L76.9394 8.16289L79.9894 13.0529L80.1591 12.947ZM80.8742 12.9H80.0742V13.1H80.8742V12.9ZM80.7742 6.99997V13H80.9742V6.99997H80.7742ZM80.1042 7.09997H80.8742V6.89997H80.1042V7.09997ZM80.2042 11.67V6.99997H80.0042V11.67H80.2042ZM77.0994 7.05299L80.0194 11.723L80.189 11.617L77.269 6.94695L77.0994 7.05299ZM73.6337 11.6491C72.7714 12.5078 71.3771 12.5078 70.5148 11.6491L70.3737 11.7908C71.314 12.7273 72.8344 12.7273 73.7748 11.7908L73.6337 11.6491ZM73.6302 8.34716C74.4808 9.28487 74.4808 10.7151 73.6302 11.6528L73.7783 11.7872C74.6981 10.7732 74.6981 9.22673 73.7783 8.21278L73.6302 8.34716ZM70.5148 8.35083C71.3771 7.49212 72.7714 7.49212 73.6337 8.35083L73.7748 8.20911C72.8344 7.27269 71.314 7.27269 70.3737 8.20911L70.5148 8.35083ZM70.5183 11.6528C69.6677 10.7151 69.6677 9.28487 70.5183 8.34716L70.3702 8.21278C69.4504 9.22673 69.4504 10.7732 70.3702 11.7872L70.5183 11.6528Z" fill="white"/>
<path d="M11.1042 7.54021C10.7783 7.93132 10.6138 8.43201 10.6442 8.94021V31.0602C10.6138 31.5684 10.7783 32.0691 11.1042 32.4602L11.1742 32.5302L23.5642 20.1502V19.8602L11.1742 7.47021L11.1042 7.54021Z" fill="url(#paint0_linear)"/>
<path d="M27.6635 24.2802L23.5635 20.1502V19.8602L27.6635 15.7202L27.7535 15.7702L32.6635 18.5602C34.0635 19.3502 34.0635 20.6502 32.6635 21.4502L27.7735 24.2302L27.6635 24.2802Z" fill="url(#paint1_linear)"/>
<path d="M27.7835 24.22L23.5635 20L11.1035 32.46C11.6922 32.9775 12.5659 33.0027 13.1835 32.52L27.7935 24.22" fill="url(#paint2_linear)"/>
<path d="M27.7838 15.7801L13.1737 7.48005C12.5562 6.99733 11.6825 7.02253 11.0938 7.54005L23.5638 20.0001L27.7838 15.7801Z" fill="url(#paint3_linear)"/>
<path opacity="0.2" d="M27.6635 24.1299L13.1735 32.3799C12.5806 32.8232 11.7665 32.8232 11.1735 32.3799L11.1035 32.4499L11.1735 32.5199C11.7654 32.9666 12.5817 32.9666 13.1735 32.5199L27.7835 24.2199L27.6635 24.1299Z" fill="black"/>
<path opacity="0.12" fill-rule="evenodd" clip-rule="evenodd" d="M27.6642 24.13L32.6642 21.3C33.1809 21.045 33.5502 20.5648 33.6642 20C33.6127 20.6244 33.2313 21.1736 32.6642 21.44L27.7542 24.22L27.6642 24.13ZM10.642 31.1147C10.6585 31.5546 10.82 31.979 11.1042 32.32L11.1742 32.4L11.1042 32.47C10.7878 32.0904 10.6235 31.6075 10.642 31.1147ZM10.642 31.1147C10.6426 31.0998 10.6433 31.0849 10.6442 31.07V30.92C10.6403 30.9851 10.6396 31.05 10.642 31.1147Z" fill="black"/>
<path opacity="0.25" d="M13.1738 7.61994L32.6638 18.6999C33.1805 18.955 33.5498 19.4351 33.6638 19.9999C33.6123 19.3755 33.2309 18.8263 32.6638 18.5599L13.1738 7.47994C11.7738 6.68994 10.6338 7.34994 10.6338 8.94994V9.09994C10.6638 7.48994 11.7838 6.82994 13.1738 7.61994Z" fill="white"/>
<defs>
<linearGradient id="paint0_linear" x1="18.1374" y1="-7.55876" x2="-1.70199" y2="-2.28242" gradientUnits="userSpaceOnUse">
<stop stop-color="#00A0FF"/>
<stop offset="0.01" stop-color="#00A1FF"/>
<stop offset="0.26" stop-color="#00BEFF"/>
<stop offset="0.51" stop-color="#00D2FF"/>
<stop offset="0.76" stop-color="#00DFFF"/>
<stop offset="1" stop-color="#00E3FF"/>
</linearGradient>
<linearGradient id="paint1_linear" x1="34.4935" y1="9.7999" x2="10.3035" y2="9.7999" gradientUnits="userSpaceOnUse">
<stop stop-color="#FFE000"/>
<stop offset="0.41" stop-color="#FFBD00"/>
<stop offset="0.78" stop-color="#FFA500"/>
<stop offset="1" stop-color="#FF9C00"/>
</linearGradient>
<linearGradient id="paint2_linear" x1="10.7374" y1="13.5275" x2="-5.19904" y2="40.3341" gradientUnits="userSpaceOnUse">
<stop stop-color="#FF3A44"/>
<stop offset="1" stop-color="#C31162"/>
</linearGradient>
<linearGradient id="paint3_linear" x1="1.37377" y1="4.09606" x2="8.48705" y2="16.0665" gradientUnits="userSpaceOnUse">
<stop stop-color="#32A071"/>
<stop offset="0.07" stop-color="#2DA771"/>
<stop offset="0.48" stop-color="#15CF74"/>
<stop offset="0.8" stop-color="#06E775"/>
<stop offset="1" stop-color="#00F076"/>
</linearGradient>
</defs>
</svg>