<svg width="24" height="24" viewBox="0 0 24 24" fill="none" xmlns="http://www.w3.org/2000/svg">
<path d="M17.6498 6.35001C16.0198 4.72001 13.7098 3.78001 11.1698 4.04001C7.49978 4.41001 4.47978 7.39001 4.06978 11.06C3.51978 15.91 7.26978 20 11.9998 20C15.1898 20 17.9298 18.13 19.2098 15.44C19.5298 14.77 19.0498 14 18.3098 14C17.9398 14 17.5898 14.2 17.4298 14.53C16.2998 16.96 13.5898 18.5 10.6298 17.84C8.40978 17.35 6.61978 15.54 6.14978 13.32C5.30978 9.44001 8.25978 6.00001 11.9998 6.00001C13.6598 6.00001 15.1398 6.69001 16.2198 7.78001L14.7098 9.29001C14.0798 9.92001 14.5198 11 15.4098 11H18.9998C19.5498 11 19.9998 10.55 19.9998 10V6.41001C19.9998 5.52001 18.9198 5.07001 18.2898 5.70001L17.6498 6.35001Z" fill="white"/>
</svg>
