<svg width="27" height="42" viewBox="0 0 27 42" fill="none" xmlns="http://www.w3.org/2000/svg">
<path d="M13.5 0.771484C6.05481 0.771484 0 6.8263 0 14.2715C0 19.1178 2.5543 23.3676 6.39844 25.7465C6.49799 25.8206 6.6118 25.8733 6.7327 25.9013C6.8536 25.9293 6.97899 25.932 7.10099 25.9092C7.22299 25.8865 7.33896 25.8387 7.44162 25.769C7.54428 25.6993 7.63141 25.609 7.69753 25.504C7.76366 25.399 7.80735 25.2814 7.82587 25.1587C7.84438 25.036 7.83732 24.9108 7.80512 24.7909C7.77292 24.6711 7.71629 24.5592 7.63877 24.4623C7.56126 24.3653 7.46454 24.2855 7.35469 24.2277C4.02199 22.1654 1.8 18.4852 1.8 14.2715C1.8 7.79909 7.02761 2.57148 13.5 2.57148C19.9724 2.57148 25.2 7.79909 25.2 14.2715C25.2 18.4852 22.978 22.1654 19.6453 24.2277C19.5355 24.2855 19.4387 24.3653 19.3612 24.4623C19.2837 24.5592 19.2271 24.6711 19.1949 24.7909C19.1627 24.9108 19.1556 25.036 19.1741 25.1587C19.1926 25.2814 19.2363 25.399 19.3025 25.504C19.3686 25.609 19.4557 25.6993 19.5584 25.769C19.661 25.8387 19.777 25.8865 19.899 25.9092C20.021 25.932 20.1464 25.9293 20.2673 25.9013C20.3882 25.8733 20.502 25.8206 20.6016 25.7465C24.4457 23.3676 27 19.1178 27 14.2715C27 6.8263 20.9452 0.771484 13.5 0.771484ZM13.5 6.17148C9.03715 6.17148 5.4 9.80863 5.4 14.2715C5.4 16.7729 6.53578 19.0162 8.325 20.5011C8.41424 20.5855 8.51978 20.6506 8.63514 20.6926C8.75049 20.7346 8.87323 20.7526 8.99578 20.7454C9.11834 20.7383 9.23814 20.7061 9.3478 20.6509C9.45746 20.5957 9.55467 20.5187 9.63346 20.4245C9.71224 20.3304 9.77093 20.2211 9.80591 20.1034C9.8409 19.9857 9.85144 19.8621 9.83689 19.7402C9.82234 19.6183 9.78301 19.5007 9.72131 19.3945C9.65961 19.2884 9.57685 19.196 9.47812 19.123C8.08472 17.9666 7.2 16.2292 7.2 14.2715C7.2 10.7814 10.0099 7.97148 13.5 7.97148C16.9901 7.97148 19.8 10.7814 19.8 14.2715C19.8 16.2292 18.9153 17.9666 17.5219 19.123C17.4231 19.196 17.3404 19.2884 17.2787 19.3945C17.217 19.5007 17.1777 19.6183 17.1631 19.7402C17.1486 19.8621 17.1591 19.9857 17.1941 20.1034C17.2291 20.2211 17.2878 20.3304 17.3665 20.4245C17.4453 20.5187 17.5425 20.5957 17.6522 20.6509C17.7619 20.7061 17.8817 20.7383 18.0042 20.7454C18.1268 20.7526 18.2495 20.7346 18.3649 20.6926C18.4802 20.6506 18.5858 20.5855 18.675 20.5011C20.4642 19.0162 21.6 16.7729 21.6 14.2715C21.6 9.80863 17.9628 6.17148 13.5 6.17148ZM13.5 11.1215C11.771 11.1215 10.35 12.5424 10.35 14.2715C10.35 15.5207 11.0844 16.6165 12.15 17.1262L3.65625 40.048C3.61467 40.1588 3.59532 40.2768 3.59932 40.395C3.60331 40.5133 3.63057 40.6297 3.67953 40.7374C3.72849 40.8452 3.7982 40.9422 3.88468 41.023C3.97115 41.1038 4.0727 41.1668 4.18352 41.2084C4.29433 41.2499 4.41225 41.2692 4.53054 41.2652C4.64882 41.2612 4.76516 41.2339 4.8729 41.185C4.98064 41.136 5.07768 41.0662 5.15847 40.9797C5.23926 40.8932 5.30222 40.7917 5.34375 40.6809L7.12969 35.8715H19.8703L21.6562 40.6809C21.6978 40.7917 21.7607 40.8932 21.8415 40.9797C21.9223 41.0662 22.0194 41.136 22.1271 41.185C22.2348 41.2339 22.3512 41.2612 22.4695 41.2652C22.5877 41.2692 22.7057 41.2499 22.8165 41.2084C22.9273 41.1668 23.0288 41.1038 23.1153 41.023C23.2018 40.9422 23.2715 40.8452 23.3205 40.7374C23.3694 40.6297 23.3967 40.5133 23.4007 40.395C23.4047 40.2768 23.3853 40.1588 23.3438 40.048L14.85 17.1262C15.9156 16.6165 16.65 15.5207 16.65 14.2715C16.65 12.5424 15.229 11.1215 13.5 11.1215ZM13.5 12.9215C14.2562 12.9215 14.85 13.5152 14.85 14.2715C14.85 15.0277 14.2562 15.6215 13.5 15.6215C12.7438 15.6215 12.15 15.0277 12.15 14.2715C12.15 13.5152 12.7438 12.9215 13.5 12.9215ZM13.5 18.659L15.5391 24.1715H11.4609L13.5 18.659ZM13.8516 25.9715H16.2L16.9453 27.9684L13.8516 25.9715ZM10.7437 26.098L15.3984 29.1074L9.61875 29.1213L10.7437 26.0979V26.098ZM18.0422 30.9074L18.9844 33.4527L12.9797 30.9215L18.0422 30.9075V30.9074ZM8.87344 31.1324L15.8062 34.0715H7.79062L8.87344 31.1324Z" fill="black"/>
</svg>
