<svg width="120" height="40" viewBox="0 0 120 40" fill="none" xmlns="http://www.w3.org/2000/svg">
<path d="M110.135 0.00013H9.53468C9.16798 0.00013 8.80568 0.00013 8.43995 0.00213C8.1338 0.00413 7.83009 0.00994 7.521 0.01483C6.84951 0.0227318 6.17961 0.0818063 5.5171 0.19154C4.85552 0.303663 4.21467 0.515046 3.61622 0.81854C3.0185 1.1246 2.47235 1.5223 1.99757 1.9972C1.5203 2.47077 1.12246 3.01815 0.81935 3.61829C0.5154 4.21724 0.304641 4.85907 0.19435 5.52161C0.0830109 6.18331 0.0230984 6.85265 0.01515 7.52361C0.00587 7.83021 0.00489 8.13783 0 8.44447V31.5587C0.00489 31.8692 0.00587 32.17 0.01515 32.4806C0.0231008 33.1516 0.0830134 33.8209 0.19435 34.4825C0.304336 35.1455 0.515108 35.7877 0.81935 36.3868C1.12233 36.985 1.52022 37.5302 1.99757 38.0011C2.47054 38.4781 3.01705 38.8761 3.61622 39.1798C4.21467 39.4841 4.85545 39.6968 5.5171 39.8106C6.17972 39.9195 6.84956 39.9786 7.521 39.9874C7.83009 39.9942 8.1338 39.9981 8.43995 39.9981C8.80567 40.0001 9.168 40.0001 9.53468 40.0001H110.135C110.494 40.0001 110.859 40.0001 111.219 39.9981C111.523 39.9981 111.836 39.9942 112.141 39.9874C112.811 39.9791 113.479 39.92 114.141 39.8106C114.804 39.696 115.448 39.4834 116.049 39.1798C116.647 38.8759 117.193 38.478 117.666 38.0011C118.142 37.5284 118.541 36.9836 118.848 36.3868C119.15 35.7872 119.358 35.1451 119.467 34.4825C119.578 33.8208 119.64 33.1516 119.652 32.4806C119.656 32.17 119.656 31.8692 119.656 31.5587C119.664 31.1954 119.664 30.8341 119.664 30.4649V9.53626C119.664 9.17005 119.664 8.80677 119.656 8.44447C119.656 8.13783 119.656 7.83021 119.652 7.52357C119.64 6.85255 119.578 6.18337 119.467 5.52157C119.358 4.85941 119.149 4.21763 118.848 3.61825C118.23 2.41533 117.252 1.43616 116.049 0.81845C115.448 0.515697 114.804 0.30437 114.141 0.19145C113.48 0.0812328 112.811 0.0221378 112.141 0.01469C111.836 0.00981 111.523 0.00395 111.219 0.002C110.859 0 110.494 0 110.135 0V0.00013Z" fill="black"/>
<path d="M8.44487 39.125C8.14019 39.125 7.84287 39.1211 7.54058 39.1143C6.91436 39.1061 6.2896 39.0516 5.67144 38.9512C5.09503 38.8519 4.53664 38.6673 4.0147 38.4033C3.49754 38.1415 3.02585 37.7983 2.6177 37.3867C2.20364 36.98 1.85891 36.5082 1.59719 35.9902C1.33258 35.4688 1.14945 34.9099 1.05419 34.333C0.951311 33.7131 0.895651 33.0863 0.887687 32.458C0.881347 32.2471 0.873047 31.5449 0.873047 31.5449V8.44434C0.873047 8.44434 0.881887 7.75293 0.887737 7.5498C0.895363 6.92248 0.950699 6.29665 1.05327 5.67773C1.14871 5.09925 1.33197 4.53875 1.59673 4.01563C1.85749 3.49794 2.2003 3.02586 2.61187 2.61768C3.02297 2.20562 3.49617 1.8606 4.01421 1.59521C4.53495 1.33209 5.09228 1.14873 5.66753 1.05127C6.28772 0.949836 6.91465 0.894996 7.54304 0.88721L8.44536 0.875H111.214L112.127 0.8877C112.75 0.895099 113.371 0.94945 113.985 1.05029C114.566 1.14898 115.13 1.33362 115.656 1.59814C116.694 2.13299 117.539 2.97916 118.071 4.01807C118.332 4.53758 118.512 5.09351 118.607 5.66699C118.71 6.29099 118.768 6.92174 118.78 7.5542C118.783 7.8374 118.783 8.1416 118.783 8.44434C118.791 8.81934 118.791 9.17627 118.791 9.53613V30.4648C118.791 30.8281 118.791 31.1826 118.783 31.54C118.783 31.8652 118.783 32.1631 118.779 32.4697C118.768 33.0909 118.711 33.7104 118.608 34.3232C118.515 34.9043 118.333 35.4675 118.068 35.9932C117.805 36.5056 117.462 36.9733 117.053 37.3789C116.644 37.7927 116.172 38.1379 115.653 38.4014C115.128 38.6674 114.566 38.8527 113.985 38.9512C113.367 39.0522 112.742 39.1067 112.116 39.1143C111.823 39.1211 111.517 39.125 111.219 39.125L110.135 39.127L8.44487 39.125Z" fill="white"/>
<path fill-rule="evenodd" clip-rule="evenodd" d="M74.6782 29.0762C73.0435 29.0762 71.8472 28.2676 71.7095 27.0362L69.8071 27.0361C69.9272 29.2822 71.7866 30.7031 74.5405 30.7031C77.4839 30.7031 79.3335 29.248 79.3335 26.9248C79.3335 25.1084 78.2759 24.0849 75.728 23.4824L74.3598 23.1465C72.7593 22.751 72.105 22.2344 72.105 21.3565C72.105 20.2549 73.1294 19.4981 74.6264 19.4981C76.1235 19.4981 77.1479 20.2461 77.2602 21.4854H79.1362C79.0757 19.3428 77.2769 17.8711 74.6519 17.8711C72.0015 17.8711 70.1343 19.3428 70.1343 21.4854C70.1343 23.2158 71.1929 24.2822 73.4731 24.833L75.0825 25.2207C76.6919 25.6162 77.3716 26.1934 77.3716 27.1572C77.3716 28.2676 76.2446 29.0762 74.6782 29.0762ZM42.3018 27.1397H37.5684L36.4316 30.4962H34.4268L38.9102 18.0782H40.9932L45.4766 30.4962H43.4375L42.3018 27.1397ZM38.0586 25.5909H41.8106L39.961 20.1436H39.9092L38.0586 25.5909ZM51.3809 30.5909C53.6533 30.5909 55.1592 28.7833 55.1592 25.9698C55.1592 23.1641 53.6445 21.3477 51.3466 21.3477C50.1643 21.3096 49.0566 21.9245 48.4638 22.9483H48.4297V21.4424H46.6308V33.4913H48.4892V29.0069H48.5322C49.0998 30.0371 50.2062 30.6523 51.3809 30.5909ZM53.249 25.9698C53.249 24.1368 52.3017 22.9317 50.8564 22.9317C49.4365 22.9317 48.4814 24.1622 48.4814 25.9698C48.4814 27.794 49.4365 29.0157 50.8564 29.0157C52.3018 29.0157 53.249 27.8194 53.249 25.9698H53.249ZM61.3457 30.5909C63.6182 30.5909 65.1245 28.7833 65.1245 25.9698C65.1245 23.1641 63.6094 21.3477 61.3115 21.3477C60.1291 21.3096 59.0215 21.9245 58.4287 22.9483H58.3945V21.4424H56.5957V33.4913H58.4541V29.0069H58.4971C59.0647 30.0371 60.1711 30.6523 61.3457 30.5909ZM63.2139 25.9698C63.2139 24.1368 62.2666 22.9317 60.8213 22.9317C59.4014 22.9317 58.4463 24.1622 58.4463 25.9698C58.4463 27.794 59.4014 29.0157 60.8213 29.0157C62.2666 29.0157 63.2139 27.8194 63.2139 25.9698ZM83.3462 19.2999V21.4424H85.0679V22.9141H83.3462V27.9053C83.3462 28.6807 83.6909 29.042 84.4477 29.042C84.6521 29.0385 84.8562 29.0241 85.0591 28.999V30.4619C84.7188 30.5255 84.3729 30.5543 84.0268 30.5479C82.1938 30.5479 81.479 29.8594 81.479 28.1035V22.9141H80.1626V21.4424H81.479V19.2999H83.3462ZM90.3579 21.3311C87.7417 21.3311 86.064 23.1212 86.064 25.9698C86.064 28.8262 87.7251 30.6085 90.3579 30.6085C92.9917 30.6085 94.6528 28.8262 94.6528 25.9698C94.6528 23.1211 92.9829 21.3311 90.3579 21.3311ZM92.7593 25.9698C92.7593 24.0157 91.8638 22.8624 90.3579 22.8624C88.8521 22.8624 87.9565 24.0245 87.9565 25.9698C87.9565 27.9317 88.8521 29.0762 90.3579 29.0762C91.8638 29.0762 92.7593 27.9317 92.7593 25.9698ZM97.9575 21.4424H96.1851L96.185 30.4961H98.0434V25.126C97.9816 24.5827 98.1602 24.0395 98.5326 23.6391C98.9049 23.2386 99.4336 23.0208 99.98 23.043C100.263 23.0348 100.545 23.0727 100.815 23.1553V21.417C100.606 21.3702 100.392 21.3469 100.178 21.3477C99.1566 21.3087 98.2477 21.9914 98.0005 22.9834H97.9575V21.4424ZM109.383 27.837C109.133 29.4805 107.533 30.6084 105.485 30.6084C102.851 30.6084 101.216 28.8438 101.216 26.0127C101.216 23.1729 102.86 21.3311 105.407 21.3311C107.912 21.3311 109.487 23.0518 109.487 25.7969V26.4336H103.092V26.5459C103.033 27.22 103.265 27.8872 103.731 28.3778C104.197 28.8685 104.852 29.1353 105.528 29.1104C106.43 29.1949 107.28 28.677 107.619 27.837L109.383 27.837ZM107.627 25.1348H103.101C103.099 24.5236 103.342 23.937 103.775 23.5055C104.208 23.074 104.795 22.8333 105.407 22.837C106.013 22.8239 106.598 23.0645 107.019 23.5007C107.441 23.9369 107.661 24.5292 107.627 25.1348Z" fill="black"/>
<path fill-rule="evenodd" clip-rule="evenodd" d="M59.0937 8.43701H59.9824V14.6978H59.0937V8.43701ZM39.9317 9.54888C39.3879 8.97456 38.6151 8.6744 37.8262 8.73101H35.6709V14.6979H37.8262C39.6035 14.6979 40.6338 13.6021 40.6338 11.6959C40.7333 10.9112 40.4756 10.1232 39.9317 9.54888ZM37.7226 13.854H36.5976V9.57422H37.7226C38.2835 9.5431 38.8289 9.76423 39.2096 10.1771C39.5904 10.5901 39.7668 11.1515 39.6904 11.708C39.7728 12.2668 39.5989 12.833 39.2172 13.2493C38.8355 13.6656 38.2865 13.8877 37.7226 13.854ZM41.6807 12.4444C41.6034 11.6372 41.9905 10.8561 42.6794 10.4286C43.3683 10.0011 44.2401 10.0011 44.929 10.4286C45.6179 10.8561 46.0049 11.6372 45.9277 12.4444C46.0064 13.2523 45.6197 14.035 44.9302 14.4634C44.2407 14.8918 43.3677 14.8918 42.6782 14.4634C41.9886 14.035 41.602 13.2523 41.6807 12.4444ZM43.8057 10.8975C44.5752 10.8975 45.0137 11.4683 45.0137 12.4444H45.0137C45.0137 13.4243 44.5752 13.9946 43.8057 13.9947C43.0332 13.9947 42.5987 13.4283 42.5987 12.4444C42.5987 11.4683 43.0332 10.8975 43.8057 10.8975ZM51.5732 14.6978H50.6514L49.7207 11.3814H49.6504L48.7236 14.6978H47.8105L46.5693 10.1948H47.4707L48.2773 13.6308H48.3438L49.2695 10.1948H50.1221L51.0479 13.6308H51.1182L51.9209 10.1948H52.8096L51.5732 14.6978ZM54.709 10.1948H53.8535L53.8535 14.6978H54.7422V12.0635C54.7103 11.7638 54.8109 11.4652 55.0175 11.2458C55.2242 11.0265 55.5163 10.9084 55.8174 10.9224C56.4746 10.9224 56.7891 11.2822 56.7891 12.0059V14.6977H57.6777V11.7827C57.7429 11.3424 57.6043 10.8964 57.3011 10.5706C56.9979 10.2448 56.563 10.0745 56.1191 10.1079C55.5459 10.0613 55.0063 10.3835 54.7754 10.9102H54.709V10.1948ZM62.2167 10.4285C61.5277 10.8561 61.1406 11.6372 61.2178 12.4444C61.1392 13.2524 61.5259 14.035 62.2155 14.4634C62.9051 14.8918 63.778 14.8918 64.4676 14.4634C65.1572 14.035 65.5439 13.2524 65.4653 12.4444C65.5425 11.6372 65.1554 10.8561 64.4664 10.4285C63.7774 10.001 62.9057 10.001 62.2167 10.4285ZM64.5508 12.4444C64.5508 11.4683 64.1123 10.8975 63.3428 10.8975C62.5703 10.8975 62.1358 11.4683 62.1358 12.4444C62.1358 13.4283 62.5703 13.9947 63.3428 13.9947C64.1123 13.9946 64.5508 13.4243 64.5508 12.4444ZM68.0757 12.0801C67.0044 12.1465 66.4009 12.6138 66.4009 13.4243C66.4024 13.8087 66.5664 14.1744 66.8524 14.4312C67.1383 14.6879 67.5196 14.8117 67.9019 14.772C68.4472 14.7972 68.9638 14.5271 69.2544 14.065H69.3247V14.6978H70.1802V11.6211C70.1802 10.6699 69.5435 10.1079 68.4146 10.1079C67.3931 10.1079 66.6655 10.604 66.5747 11.3775H67.4351C67.5337 11.0591 67.8774 10.877 68.3735 10.877C68.981 10.877 69.2954 11.1455 69.2954 11.6211V12.0098L68.0757 12.0801ZM69.2954 13.0396V12.6631L68.1958 12.7334C67.5757 12.7749 67.2944 12.9859 67.2944 13.3828C67.2944 13.7881 67.646 14.0239 68.1294 14.0239C68.4156 14.0529 68.7013 13.9645 68.9211 13.7789C69.1409 13.5934 69.276 13.3266 69.2954 13.0396ZM73.2173 10.1201C72.0796 10.1201 71.3481 11.0215 71.3481 12.4444C71.3481 13.8706 72.0718 14.772 73.2173 14.772C73.798 14.7934 74.3427 14.4907 74.6313 13.9863H74.7017V14.6978H75.5532V8.43701H74.6645V10.9101H74.5981C74.3298 10.4015 73.7918 10.0937 73.2173 10.1201ZM72.2661 12.4444C72.2661 13.3994 72.7163 13.9741 73.4693 13.9741C74.2183 13.9741 74.6812 13.3911 74.6812 12.4483C74.6812 11.5098 74.2134 10.9185 73.4693 10.9185C72.7212 10.9185 72.2661 11.4971 72.2661 12.4444H72.2661ZM80.2287 10.4286C79.5398 10.8561 79.1528 11.6372 79.23 12.4444C79.1513 13.2523 79.538 14.035 80.2275 14.4634C80.917 14.8918 81.79 14.8918 82.4795 14.4634C83.1691 14.035 83.5557 13.2523 83.4771 12.4444C83.5543 11.6372 83.1672 10.8561 82.4783 10.4286C81.7894 10.0011 80.9176 10.0011 80.2287 10.4286ZM82.563 12.4444C82.563 11.4683 82.1245 10.8975 81.355 10.8975C80.5825 10.8975 80.148 11.4683 80.148 12.4444C80.148 13.4283 80.5826 13.9947 81.355 13.9947C82.1245 13.9946 82.563 13.4243 82.563 12.4444ZM85.5249 10.1948H84.6694V14.6978H85.5581V12.0635C85.5262 11.7638 85.6268 11.4652 85.8335 11.2458C86.0401 11.0265 86.3323 10.9084 86.6333 10.9224C87.2905 10.9224 87.605 11.2822 87.605 12.0059V14.6977H88.4936V11.7827C88.5588 11.3424 88.4202 10.8964 88.117 10.5706C87.8138 10.2448 87.3789 10.0745 86.9351 10.1079C86.3619 10.0613 85.8222 10.3835 85.5913 10.9102H85.5249V10.1948ZM93.5151 9.07374V10.2153H94.4907V10.9639H93.5151V13.2793C93.5151 13.751 93.7095 13.9575 94.1519 13.9575C94.2651 13.9572 94.3783 13.9503 94.4907 13.937V14.6773C94.3311 14.7058 94.1694 14.721 94.0073 14.7227C93.019 14.7227 92.6255 14.375 92.6255 13.5068V10.9638H91.9106V10.2153H92.6255V9.07374H93.5151ZM96.5854 8.43701H95.7046L95.7046 14.6977H96.5933V12.0679C96.5658 11.7589 96.6761 11.4535 96.8947 11.2334C97.1133 11.0133 97.4179 10.9009 97.7271 10.9263C98.355 10.9263 98.69 11.2905 98.69 12.0098V14.6978H99.5795V11.7905C99.6384 11.3525 99.4989 10.9111 99.199 10.5864C98.8991 10.2618 98.4701 10.0878 98.0288 10.1118C97.4469 10.0646 96.8978 10.3872 96.6558 10.9185H96.5854V8.43701ZM104.761 13.4819C104.512 14.3313 103.69 14.8801 102.81 14.7847C102.21 14.8005 101.633 14.5516 101.232 14.1041C100.831 13.6565 100.648 13.0555 100.73 12.4605C100.65 11.8638 100.833 11.2618 101.231 10.8105C101.63 10.3591 102.204 10.1028 102.806 10.1079C104.059 10.1079 104.815 10.9639 104.815 12.3779V12.688H101.635V12.7378C101.607 13.072 101.721 13.4025 101.95 13.6481C102.178 13.8936 102.499 14.0315 102.834 14.0278C103.269 14.08 103.692 13.8643 103.906 13.4819L104.761 13.4819ZM103.91 12.0308H101.635C101.631 11.7203 101.753 11.4213 101.972 11.2017C102.192 10.982 102.491 10.8604 102.801 10.8643C103.108 10.8572 103.403 10.9799 103.614 11.2021C103.825 11.4242 103.932 11.7252 103.91 12.0308Z" fill="black"/>
<path fill-rule="evenodd" clip-rule="evenodd" d="M23.3154 7.84717C23.4161 9.16184 23.0003 10.464 22.1564 11.4771C21.3377 12.4954 20.0971 13.0819 18.7905 13.0685C18.7074 11.7917 19.1353 10.5342 19.9799 9.57299C20.8352 8.59878 22.0261 7.98258 23.3154 7.84717ZM27.4476 15.5719C25.9446 16.4959 25.0198 18.1254 24.997 19.8896C24.9992 21.8855 26.1945 23.6868 28.0327 24.4643C27.6792 25.6128 27.1463 26.6982 26.4537 27.6802C25.5237 29.0715 24.5485 30.4307 23.0007 30.4558C22.2646 30.4728 21.7677 30.2611 21.25 30.0406C20.7099 29.8105 20.1471 29.5708 19.2665 29.5708C18.3325 29.5708 17.7445 29.8182 17.1774 30.0569C16.6874 30.2631 16.2129 30.4628 15.5443 30.4905C14.0703 30.5451 12.9438 29.0056 11.9799 27.6274C10.0534 24.8128 8.55327 19.6954 10.5644 16.2134C11.5088 14.5163 13.2746 13.4394 15.2158 13.3767C16.0518 13.3595 16.8539 13.6817 17.5572 13.9642C18.0951 14.1802 18.5751 14.373 18.9682 14.373C19.3138 14.373 19.7804 14.1878 20.3242 13.972C21.1809 13.632 22.2291 13.216 23.2972 13.3281C24.957 13.3801 26.4951 14.2116 27.4476 15.5719Z" fill="black"/>
</svg>