<svg width="1440" height="1505" viewBox="0 0 1440 1505" fill="none" xmlns="http://www.w3.org/2000/svg">
<g clip-path="url(#clip0)">
<g>
<path opacity="0.26" d="M1027.99 602.979C1262.01 860.194 1465.48 1242.7 1528.69 1544.36C1592.2 1847.63 1503.31 2018.17 1310.8 1964.61C1117.48 1910.83 851.081 1638.68 658.35 1297.66C466.355 957.9 378.93 607.541 443.1 434.715C506.167 264.833 707.508 296.249 938.653 512.115C968.31 539.852 998.261 570.239 1027.99 602.979Z" stroke="url(#paint0_linear)" stroke-opacity="0.5" stroke-miterlimit="10"/>
<path opacity="0.26" d="M1044.18 604.303C1277.61 867.698 1476.23 1255.51 1532.89 1558.78C1589.85 1863.67 1493.74 2031.71 1297.33 1973.07C1100.11 1914.14 833.789 1635 645.032 1288.91C457.01 944.068 376.871 591.501 447.59 420.442C517.133 252.325 723.184 289.112 954.844 511.085C984.648 539.632 1014.53 570.827 1044.18 604.303Z" stroke="url(#paint1_linear)" stroke-opacity="0.5" stroke-miterlimit="10"/>
<path opacity="0.26" d="M1060.81 606.069C1293.5 875.644 1486.97 1268.6 1536.79 1573.27C1586.9 1879.56 1483.51 2045.03 1283.27 1981.09C1082.22 1916.94 816.124 1630.66 631.709 1279.64C447.955 930.015 375.249 575.389 452.665 406.316C528.757 240.112 739.517 282.417 971.546 510.496C1001.42 539.779 1031.3 571.784 1060.81 606.069Z" stroke="url(#paint2_linear)" stroke-opacity="0.5" stroke-miterlimit="10"/>
<path opacity="0.26" d="M1077.88 608.276C1309.61 883.958 1497.64 1281.99 1540.46 1587.91C1583.51 1895.45 1472.69 2058.05 1268.62 1988.82C1063.75 1919.29 798.166 1626.02 618.239 1270.22C439.048 915.668 374.068 559.276 458.328 392.263C541.117 228.12 756.587 276.09 988.836 510.349C1018.64 540.441 1048.44 573.255 1077.88 608.276Z" stroke="url(#paint3_linear)" stroke-opacity="0.5" stroke-miterlimit="10"/>
<path opacity="0.26" d="M1095.4 610.925C1325.96 892.714 1508.24 1295.6 1543.86 1602.56C1579.62 1911.12 1461.21 2070.71 1253.4 1996.03C1044.7 1921.06 779.774 1620.73 604.704 1260.22C430.223 901.101 373.265 543.09 464.516 378.432C554.148 216.569 774.329 270.278 1006.5 510.644C1036.31 541.545 1066.11 575.168 1095.4 610.925Z" stroke="url(#paint4_linear)" stroke-opacity="0.5" stroke-miterlimit="10"/>
<path opacity="0.26" d="M1113.28 614.089C1342.51 901.984 1518.76 1309.58 1546.94 1617.42C1575.2 1926.87 1449.14 2083.21 1237.57 2002.94C1025.12 1922.38 761.152 1615.14 591.086 1250.06C421.609 886.313 372.967 526.904 471.209 364.747C567.832 205.385 792.575 264.907 1024.68 511.453C1054.48 543.163 1084.14 577.522 1113.28 614.089Z" stroke="url(#paint5_linear)" stroke-opacity="0.5" stroke-miterlimit="10"/>
<path opacity="0.26" d="M1131.6 617.694C1359.29 911.622 1529.21 1323.86 1549.67 1632.28C1570.2 1942.39 1436.27 2095.28 1221.02 2009.42C1004.88 1923.19 741.947 1608.96 577.253 1239.47C413.148 871.378 373.042 510.718 478.496 351.283C582.184 194.497 811.636 260.051 1043.3 512.704C1073.1 545.224 1102.68 580.392 1131.6 617.694Z" stroke="url(#paint6_linear)" stroke-opacity="0.5" stroke-miterlimit="10"/>
<path opacity="0.26" d="M1150.29 621.814C1376.21 921.702 1539.51 1338.35 1552.02 1647.21C1564.6 1957.77 1422.72 2106.98 1203.79 2015.38C983.98 1923.41 722.443 1602.26 563.342 1228.43C404.83 856.074 373.554 494.531 486.367 337.966C597.267 184.049 831.282 255.71 1062.5 514.543C1092.23 547.799 1121.59 583.703 1150.29 621.814Z" stroke="url(#paint7_linear)" stroke-opacity="0.5" stroke-miterlimit="10"/>
<path opacity="0.26" d="M1169.43 626.449C1393.36 932.296 1549.74 1353.14 1554.08 1662.3C1558.42 1973.07 1408.52 2118.46 1186.06 2021.04C962.716 1923.19 702.724 1595.12 549.436 1217.25C396.738 840.622 374.514 478.418 494.833 324.869C613.018 173.969 851.596 251.884 1082.15 516.823C1111.73 550.888 1140.95 587.528 1169.43 626.449Z" stroke="url(#paint8_linear)" stroke-opacity="0.5" stroke-miterlimit="10"/>
<path opacity="0.26" d="M1188.93 631.527C1410.65 943.26 1559.82 1368.15 1555.77 1677.31C1551.73 1988.08 1393.58 2129.42 1167.59 2026.05C940.711 1922.23 682.485 1587.33 535.38 1205.48C388.863 824.953 375.984 462.233 503.883 312.069C629.574 164.406 872.567 248.721 1102.24 519.694C1131.75 554.421 1160.74 591.944 1188.93 631.527Z" stroke="url(#paint9_linear)" stroke-opacity="0.5" stroke-miterlimit="10"/>
<path opacity="0.26" d="M1208.87 637.192C1428.24 954.737 1569.83 1383.53 1557.1 1692.39C1544.37 2002.95 1377.91 2139.94 1148.53 2030.61C918.192 1920.76 662.027 1579.09 521.323 1193.41C381.135 809.134 377.971 446.194 513.523 299.414C646.794 155.209 894.276 245.925 1122.85 523.005C1152.21 558.615 1180.98 596.799 1208.87 637.192Z" stroke="url(#paint10_linear)" stroke-opacity="0.5" stroke-miterlimit="10"/>
<path opacity="0.26" d="M1229.18 643.371C1445.9 966.729 1579.62 1399.12 1558.05 1707.55C1536.42 2017.66 1361.5 2150.17 1128.73 2034.65C895.012 1918.7 641.127 1570.26 507.12 1180.9C373.702 793.021 380.399 430.154 523.752 287.126C664.676 146.526 916.573 243.865 1143.89 526.904C1173.11 563.249 1201.66 602.243 1229.18 643.371Z" stroke="url(#paint11_linear)" stroke-opacity="0.5" stroke-miterlimit="10"/>
<path opacity="0.26" d="M1249.94 650.066C1463.79 979.089 1589.26 1414.87 1558.65 1722.63C1527.81 2032.01 1344.43 2159.8 1108.35 2038.11C871.318 1915.91 619.936 1560.84 492.994 1168.03C366.493 776.761 383.345 414.188 534.645 275.06C683.37 138.286 939.609 242.319 1165.46 531.391C1194.52 568.546 1222.78 608.276 1249.94 650.066Z" stroke="url(#paint12_linear)" stroke-opacity="0.5" stroke-miterlimit="10"/>
<path opacity="0.26" d="M1271.06 657.351C1481.74 991.965 1598.75 1430.98 1558.79 1737.78C1518.61 2046.21 1326.54 2169.07 1087.3 2041.13C847.033 1912.6 598.447 1550.91 478.791 1154.86C359.502 760.354 386.877 398.37 546.199 263.288C702.871 130.561 963.305 241.437 1187.53 536.395C1216.31 574.359 1244.27 614.825 1271.06 657.351Z" stroke="url(#paint13_linear)" stroke-opacity="0.5" stroke-miterlimit="10"/>
<path opacity="0.26" d="M1292.55 665.149C1499.92 1005.28 1608.1 1447.31 1558.5 1752.94C1508.68 2060.19 1307.93 2177.83 1065.52 2043.56C822.088 1908.62 576.52 1540.39 464.443 1141.32C352.734 743.726 390.853 382.552 558.417 251.811C723.11 123.277 987.739 241.142 1210.05 542.06C1238.61 580.686 1266.2 621.961 1292.55 665.149Z" stroke="url(#paint14_linear)" stroke-opacity="0.5" stroke-miterlimit="10"/>
<path opacity="0.26" d="M1314.47 673.537C1518.24 1019.11 1617.22 1463.87 1557.91 1768.1C1498.23 2073.94 1288.64 2186.14 1043.15 2045.4C796.623 1904.06 554.44 1529.35 450.163 1127.42C346.328 726.878 395.413 366.955 571.218 240.702C744.007 116.656 1012.83 241.585 1233.01 548.314C1261.27 587.677 1288.57 629.687 1314.47 673.537Z" stroke="url(#paint15_linear)" stroke-opacity="0.5" stroke-miterlimit="10"/>
<path opacity="0.26" d="M1336.7 682.587C1536.64 1033.54 1626.13 1480.72 1556.73 1783.25C1486.97 2087.33 1268.48 2193.94 1019.97 2046.65C770.502 1898.76 531.85 1517.65 435.816 1113.07C340.149 709.956 400.566 351.43 584.688 229.96C765.718 110.549 1038.59 242.614 1256.41 555.157C1284.45 595.328 1311.31 638.001 1336.7 682.587Z" stroke="url(#paint16_linear)" stroke-opacity="0.5" stroke-miterlimit="10"/>
<path opacity="0.26" d="M1359.36 692.151C1555.18 1048.32 1634.81 1497.79 1555.18 1798.34C1475.12 2100.5 1247.58 2201.15 996.27 2047.24C743.931 1892.66 509.106 1505.36 421.534 1098.35C334.257 692.813 406.228 336.053 598.885 219.512C788.232 105.031 1065.08 244.38 1280.4 562.588C1308.07 603.495 1334.49 646.903 1359.36 692.151Z" stroke="url(#paint17_linear)" stroke-opacity="0.5" stroke-miterlimit="10"/>
<path opacity="0.26" d="M1382.32 702.304C1573.8 1063.55 1643.27 1515 1553.12 1813.27C1462.46 2113.16 1225.8 2207.7 971.765 2047.09C716.629 1885.81 485.999 1492.42 407.185 1083.12C328.665 675.523 412.483 320.823 613.751 209.506C811.56 100.101 1092.23 246.808 1304.76 570.754C1332.06 612.323 1358.04 656.394 1382.32 702.304Z" stroke="url(#paint18_linear)" stroke-opacity="0.5" stroke-miterlimit="10"/>
<path opacity="0.26" d="M1405.73 713.12C1592.57 1079.37 1651.51 1532.51 1550.62 1828.28C1449.22 2125.59 1203.35 2213.81 946.599 2046.43C688.815 1878.38 462.6 1478.88 392.837 1067.67C323.442 658.087 419.329 305.741 629.281 199.868C835.626 95.8343 1120.05 249.972 1329.63 579.436C1356.49 621.815 1381.96 666.548 1405.73 713.12Z" stroke="url(#paint19_linear)" stroke-opacity="0.5" stroke-miterlimit="10"/>
<path opacity="0.26" d="M1429.42 724.524C1611.33 1095.7 1659.53 1550.24 1547.6 1843.22C1435.16 2137.73 1180.02 2219.33 920.768 2045.1C660.407 1870.22 438.903 1464.82 378.559 1051.85C318.51 640.502 426.834 290.879 645.469 190.671C860.424 92.229 1148.53 253.944 1354.8 588.927C1381.37 631.967 1406.31 677.363 1429.42 724.524Z" stroke="url(#paint20_linear)" stroke-opacity="0.5" stroke-miterlimit="10"/>
<path opacity="0.26" d="M1453.49 736.589C1630.25 1112.48 1667.19 1568.2 1544.15 1858C1420.45 2149.43 1155.96 2224.11 894.279 2043.04C631.49 1861.24 414.99 1450.04 364.36 1035.67C313.951 622.844 434.933 276.237 662.472 181.915C886.111 89.2121 1177.82 258.653 1380.63 599.006C1406.68 642.783 1431.04 688.84 1453.49 736.589Z" stroke="url(#paint21_linear)" stroke-opacity="0.5" stroke-miterlimit="10"/>
<path opacity="0.26" d="M1477.91 749.245C1649.23 1129.77 1674.69 1586.22 1540.24 1872.72C1405.06 2160.69 1131.16 2228.3 867.12 2040.32C602.05 1851.53 390.848 1434.66 350.226 1019.11C309.752 605.04 443.612 261.818 680.129 173.603C912.525 86.9324 1207.69 264.098 1406.83 609.749C1432.36 654.261 1456.13 700.907 1477.91 749.245Z" stroke="url(#paint22_linear)" stroke-opacity="0.5" stroke-miterlimit="10"/>
<path opacity="0.26" d="M1502.64 762.635C1668.29 1147.57 1681.84 1604.62 1535.69 1887.36C1388.8 2171.58 1105.41 2231.83 839.233 2036.86C571.956 1841.08 366.346 1418.69 336.101 1002.19C305.929 587.161 452.961 247.617 698.456 165.803C939.757 85.3863 1238.24 270.425 1433.32 621.299C1458.42 666.4 1481.6 713.708 1502.64 762.635Z" stroke="url(#paint23_linear)" stroke-opacity="0.5" stroke-miterlimit="10"/>
<path opacity="0.26" d="M1527.74 776.614C1687.35 1165.89 1688.68 1623.08 1530.75 1901.78C1371.95 2182.02 1078.99 2234.63 810.753 2032.52C541.415 1829.6 341.767 1401.92 322.118 984.681C302.47 569.135 463.042 233.638 717.589 158.445C967.794 84.5771 1269.51 277.488 1460.4 633.439C1484.91 679.202 1507.43 727.172 1527.74 776.614Z" stroke="url(#paint24_linear)" stroke-opacity="0.5" stroke-miterlimit="10"/>
<path opacity="0.26" d="M1553.05 791.255C1706.41 1184.66 1695.15 1641.77 1525.09 1916.13C1354.14 2191.96 1051.54 2236.76 781.463 2027.59C510.212 1817.54 316.745 1384.63 308.061 967.097C299.451 551.036 473.711 219.953 737.383 151.676C996.566 84.5034 1301.45 285.434 1487.78 646.461C1511.77 692.813 1533.62 741.298 1553.05 791.255Z" stroke="url(#paint25_linear)" stroke-opacity="0.5" stroke-miterlimit="10"/>
<path opacity="0.26" d="M1578.73 806.632C1725.47 1204.01 1701.41 1660.61 1519.05 1930.33C1335.74 2201.52 1023.5 2238.16 751.66 2021.78C478.642 1804.52 291.725 1366.6 294.3 948.924C296.802 532.863 485.045 206.636 757.989 145.349C1026.3 85.1659 1334.05 294.19 1515.67 659.999C1539 707.087 1560.12 756.161 1578.73 806.632Z" stroke="url(#paint26_linear)" stroke-opacity="0.5" stroke-miterlimit="10"/>
<path opacity="0.26" d="M1604.71 822.671C1744.6 1223.8 1707.22 1679.66 1512.36 1944.38C1316.46 2210.57 994.506 2238.82 721.046 2015.23C446.41 1790.76 266.409 1347.99 280.539 930.53C294.594 514.69 497.113 193.54 779.329 139.61C1056.76 86.6367 1367.31 303.827 1543.93 674.419C1566.59 722.021 1586.9 771.684 1604.71 822.671Z" stroke="url(#paint27_linear)" stroke-opacity="0.5" stroke-miterlimit="10"/>
<path opacity="0.26" d="M1630.98 839.372C1763.74 1244.1 1712.74 1698.79 1505.14 1958.21C1296.44 2219.03 964.776 2238.68 689.845 2007.87C413.81 1776.12 240.874 1328.71 266.925 911.769C292.829 496.371 509.771 180.812 801.407 134.46C1088.04 88.9179 1401.24 314.349 1572.55 689.576C1594.56 737.767 1614.06 787.944 1630.98 839.372Z" stroke="url(#paint28_linear)" stroke-opacity="0.5" stroke-miterlimit="10"/>
<path opacity="0.26" d="M1657.48 856.736C1782.8 1264.92 1717.82 1717.99 1497.27 1971.82C1275.55 2226.98 934.089 2237.65 657.833 1999.63C380.474 1760.59 215.118 1308.63 253.385 892.566C291.504 478.051 523.238 168.378 824.22 129.898C1120.05 92.0815 1435.82 325.826 1601.55 705.468C1622.89 754.247 1641.58 804.866 1657.48 856.736Z" stroke="url(#paint29_linear)" stroke-opacity="0.5" stroke-miterlimit="10"/>
<path opacity="0.26" d="M1684.26 874.91C1801.78 1286.26 1722.53 1737.49 1488.88 1985.29C1253.98 2234.41 902.667 2235.95 625.307 1990.59C346.77 1744.19 189.289 1288.03 240.065 873.07C290.695 459.732 537.368 156.386 847.842 125.927C1152.94 96.0556 1471.07 338.188 1630.98 722.096C1651.51 771.465 1669.32 822.599 1684.26 874.91Z" stroke="url(#paint30_linear)" stroke-opacity="0.5" stroke-miterlimit="10"/>
<path opacity="0.26" d="M1711.27 893.67C1820.77 1308.04 1726.87 1756.99 1479.83 1998.38C1231.54 2241.1 870.434 2233.23 592.045 1980.5C312.551 1726.75 163.238 1266.47 226.893 853.131C290.327 441.337 552.233 144.687 872.127 122.615C1186.58 100.91 1506.91 351.503 1660.64 739.532C1680.44 789.416 1697.36 841.065 1711.27 893.67Z" stroke="url(#paint31_linear)" stroke-opacity="0.5" stroke-miterlimit="10"/>
<path opacity="0.26" d="M1738.5 913.241C1839.61 1330.41 1730.7 1776.63 1470.19 2011.41C1208.28 2247.36 837.319 2229.85 558.193 1969.76C277.89 1708.58 137.113 1244.47 213.941 832.972C290.474 423.018 567.834 133.504 897.295 119.967C1221.09 106.65 1543.41 365.777 1690.74 757.78C1709.72 808.178 1725.69 860.268 1738.5 913.241Z" stroke="url(#paint32_linear)" stroke-opacity="0.5" stroke-miterlimit="10"/>
<path opacity="0.26" d="M1766.02 933.474C1858.45 1353.21 1734.23 1796.35 1459.96 2024.06C1184.22 2252.95 803.394 2225.51 523.68 1957.99C242.788 1689.37 110.842 1221.74 201.136 812.371C291.137 404.624 584.244 122.689 923.198 117.98C1256.41 113.345 1580.57 381.007 1721.2 776.835C1739.31 827.748 1754.25 880.206 1766.02 933.474Z" stroke="url(#paint33_linear)" stroke-opacity="0.5" stroke-miterlimit="10"/>
<path opacity="0.26" d="M1793.69 954.516C1877.14 1376.54 1737.24 1816.29 1449.07 2036.49C1159.34 2257.88 768.73 2220.28 488.574 1945.41C207.241 1669.36 84.567 1198.34 188.623 791.549C292.311 386.304 601.314 112.314 949.908 116.655C1292.54 120.996 1618.32 397.193 1751.96 796.7C1769.18 848.054 1783.09 900.88 1793.69 954.516Z" stroke="url(#paint34_linear)" stroke-opacity="0.5" stroke-miterlimit="10"/>
<path opacity="0.26" d="M1821.58 976.22C1895.68 1400.37 1739.82 1836.15 1437.51 2048.56C1133.59 2262.15 733.114 2214.03 452.737 1931.72C171.183 1648.32 58.076 1174.13 176.261 770.286C294.005 367.984 619.197 102.382 977.358 116.067C1329.41 129.604 1656.66 414.409 1783.02 817.3C1799.28 869.17 1812.16 922.364 1821.58 976.22Z" stroke="url(#paint35_linear)" stroke-opacity="0.5" stroke-miterlimit="10"/>
<path opacity="0.26" d="M1849.62 998.66C1914.08 1424.65 1741.88 1856.09 1425.3 2060.33C1107.03 2265.68 696.764 2206.89 416.313 1917.16C134.759 1626.32 31.5131 1149.27 164.195 748.729C296.289 349.737 637.818 92.964 1005.62 116.287C1367.09 139.242 1695.67 432.729 1814.37 838.857C1829.68 891.094 1841.45 944.583 1849.62 998.66Z" stroke="url(#paint36_linear)" stroke-opacity="0.5" stroke-miterlimit="10"/>
<path opacity="0.26" d="M1877.8 1021.91C1932.33 1449.45 1743.43 1876.1 1412.42 2071.81C1079.65 2268.55 659.526 2198.8 379.297 1901.71C97.8897 1603.36 4.94593 1123.73 152.346 726.877C299.084 331.564 657.245 83.9876 1034.61 117.169C1405.5 149.763 1735.11 451.931 1846.01 861.149C1860.29 913.755 1870.89 967.537 1877.8 1021.91Z" stroke="url(#paint37_linear)" stroke-opacity="0.5" stroke-miterlimit="10"/>
<path opacity="0.26" d="M1906.21 1045.82C1950.51 1474.68 1744.53 1896.12 1398.88 2082.92C1051.39 2270.68 621.478 2189.68 341.69 1885.15C60.6513 1579.38 -21.622 1097.47 140.717 704.732C302.54 313.465 677.48 75.6009 1064.41 118.862C1444.73 161.388 1775.22 472.312 1877.95 884.326C1891.12 937.299 1900.54 991.376 1906.21 1045.82Z" stroke="url(#paint38_linear)" stroke-opacity="0.5" stroke-miterlimit="10"/>
<path opacity="0.26" d="M1934.69 1070.54C1968.39 1500.43 1745.05 1916.2 1384.68 2093.66C1022.32 2272.08 582.699 2179.52 303.426 1867.64C23.0499 1554.44 -48.3321 1070.47 129.387 682.218C306.517 295.514 698.456 67.7286 1095.03 121.364C1484.76 174.043 1815.91 493.722 1910.11 908.385C1922.18 961.652 1930.42 1015.95 1934.69 1070.54Z" stroke="url(#paint39_linear)" stroke-opacity="0.5" stroke-miterlimit="10"/>
<path opacity="0.26" d="M1963.32 1096C1986.13 1526.63 1745.12 1936.29 1369.82 2104.04C992.449 2272.67 543.11 2168.41 264.721 1849.1C-14.9201 1528.54 -74.8957 1042.8 118.498 659.484C311.156 277.635 720.314 60.4446 1126.46 124.675C1525.61 187.801 1857.13 516.235 1942.56 933.253C1953.46 986.815 1960.37 1041.33 1963.32 1096Z" stroke="url(#paint40_linear)" stroke-opacity="0.5" stroke-miterlimit="10"/>
<path opacity="0.26" d="M1992.02 1122.26C2003.57 1553.33 1744.61 1956.37 1354.14 2114.04C961.613 2272.52 502.634 2156.2 225.275 1829.6C-53.2619 1501.61 -101.537 1014.48 107.826 636.455C316.379 259.904 742.905 53.7497 1158.61 128.795C1567.11 202.59 1898.85 539.779 1975.09 958.93C1984.88 1012.79 1990.54 1067.45 1992.02 1122.26Z" stroke="url(#paint41_linear)" stroke-opacity="0.5" stroke-miterlimit="10"/>
<path opacity="0.26" d="M2020.79 1149.2C2020.79 1580.41 1743.5 1976.39 1337.88 2123.46C930.117 2271.35 461.498 2142.81 185.39 1808.86C-91.8961 1473.66 -128.102 985.346 97.5236 613.136C322.193 242.249 766.306 47.6461 1191.51 133.801C1609.42 218.558 1941.02 564.503 2007.91 985.493C2016.52 1039.64 2020.79 1094.46 2020.79 1149.2Z" stroke="url(#paint42_linear)" stroke-opacity="0.5" stroke-miterlimit="10"/>
</g>
</g>
<defs>
<linearGradient id="paint0_linear" x1="985.633" y1="325.888" x2="985.633" y2="1974.38" gradientUnits="userSpaceOnUse">
<stop stop-color="#999999"/>
<stop offset="1" stop-color="#7D92FF"/>
</linearGradient>
<linearGradient id="paint1_linear" x1="985.644" y1="315.588" x2="985.644" y2="1984.65" gradientUnits="userSpaceOnUse">
<stop stop-color="#999999"/>
<stop offset="1" stop-color="#7D92FF"/>
</linearGradient>
<linearGradient id="paint2_linear" x1="985.667" y1="305.466" x2="985.667" y2="1994.71" gradientUnits="userSpaceOnUse">
<stop stop-color="#999999"/>
<stop offset="1" stop-color="#7D92FF"/>
</linearGradient>
<linearGradient id="paint3_linear" x1="985.745" y1="295.445" x2="985.745" y2="2004.63" gradientUnits="userSpaceOnUse">
<stop stop-color="#999999"/>
<stop offset="1" stop-color="#7D92FF"/>
</linearGradient>
<linearGradient id="paint4_linear" x1="985.811" y1="285.689" x2="985.811" y2="2014.24" gradientUnits="userSpaceOnUse">
<stop stop-color="#999999"/>
<stop offset="1" stop-color="#7D92FF"/>
</linearGradient>
<linearGradient id="paint5_linear" x1="985.893" y1="276.126" x2="985.893" y2="2023.79" gradientUnits="userSpaceOnUse">
<stop stop-color="#999999"/>
<stop offset="1" stop-color="#7D92FF"/>
</linearGradient>
<linearGradient id="paint6_linear" x1="985.932" y1="266.75" x2="985.932" y2="2033.08" gradientUnits="userSpaceOnUse">
<stop stop-color="#999999"/>
<stop offset="1" stop-color="#7D92FF"/>
</linearGradient>
<linearGradient id="paint7_linear" x1="985.934" y1="257.604" x2="985.934" y2="2042.09" gradientUnits="userSpaceOnUse">
<stop stop-color="#999999"/>
<stop offset="1" stop-color="#7D92FF"/>
</linearGradient>
<linearGradient id="paint8_linear" x1="985.952" y1="248.661" x2="985.952" y2="2051.01" gradientUnits="userSpaceOnUse">
<stop stop-color="#999999"/>
<stop offset="1" stop-color="#7D92FF"/>
</linearGradient>
<linearGradient id="paint9_linear" x1="985.954" y1="240.04" x2="985.954" y2="2059.54" gradientUnits="userSpaceOnUse">
<stop stop-color="#999999"/>
<stop offset="1" stop-color="#7D92FF"/>
</linearGradient>
<linearGradient id="paint10_linear" x1="985.935" y1="231.549" x2="985.935" y2="2067.84" gradientUnits="userSpaceOnUse">
<stop stop-color="#999999"/>
<stop offset="1" stop-color="#7D92FF"/>
</linearGradient>
<linearGradient id="paint11_linear" x1="985.894" y1="223.397" x2="985.894" y2="2075.94" gradientUnits="userSpaceOnUse">
<stop stop-color="#999999"/>
<stop offset="1" stop-color="#7D92FF"/>
</linearGradient>
<linearGradient id="paint12_linear" x1="985.853" y1="215.451" x2="985.853" y2="2083.67" gradientUnits="userSpaceOnUse">
<stop stop-color="#999999"/>
<stop offset="1" stop-color="#7D92FF"/>
</linearGradient>
<linearGradient id="paint13_linear" x1="985.78" y1="207.783" x2="985.78" y2="2091.22" gradientUnits="userSpaceOnUse">
<stop stop-color="#999999"/>
<stop offset="1" stop-color="#7D92FF"/>
</linearGradient>
<linearGradient id="paint14_linear" x1="985.655" y1="200.339" x2="985.655" y2="2098.48" gradientUnits="userSpaceOnUse">
<stop stop-color="#999999"/>
<stop offset="1" stop-color="#7D92FF"/>
</linearGradient>
<linearGradient id="paint15_linear" x1="985.579" y1="193.255" x2="985.579" y2="2105.48" gradientUnits="userSpaceOnUse">
<stop stop-color="#999999"/>
<stop offset="1" stop-color="#7D92FF"/>
</linearGradient>
<linearGradient id="paint16_linear" x1="985.428" y1="186.433" x2="985.428" y2="2112.18" gradientUnits="userSpaceOnUse">
<stop stop-color="#999999"/>
<stop offset="1" stop-color="#7D92FF"/>
</linearGradient>
<linearGradient id="paint17_linear" x1="985.288" y1="179.882" x2="985.288" y2="2118.57" gradientUnits="userSpaceOnUse">
<stop stop-color="#999999"/>
<stop offset="1" stop-color="#7D92FF"/>
</linearGradient>
<linearGradient id="paint18_linear" x1="985.116" y1="173.645" x2="985.116" y2="2124.54" gradientUnits="userSpaceOnUse">
<stop stop-color="#999999"/>
<stop offset="1" stop-color="#7D92FF"/>
</linearGradient>
<linearGradient id="paint19_linear" x1="984.964" y1="167.714" x2="984.964" y2="2130.35" gradientUnits="userSpaceOnUse">
<stop stop-color="#999999"/>
<stop offset="1" stop-color="#7D92FF"/>
</linearGradient>
<linearGradient id="paint20_linear" x1="984.807" y1="162.115" x2="984.807" y2="2135.86" gradientUnits="userSpaceOnUse">
<stop stop-color="#999999"/>
<stop offset="1" stop-color="#7D92FF"/>
</linearGradient>
<linearGradient id="paint21_linear" x1="984.669" y1="156.799" x2="984.669" y2="2140.99" gradientUnits="userSpaceOnUse">
<stop stop-color="#999999"/>
<stop offset="1" stop-color="#7D92FF"/>
</linearGradient>
<linearGradient id="paint22_linear" x1="984.581" y1="151.807" x2="984.581" y2="2145.83" gradientUnits="userSpaceOnUse">
<stop stop-color="#999999"/>
<stop offset="1" stop-color="#7D92FF"/>
</linearGradient>
<linearGradient id="paint23_linear" x1="984.47" y1="147.17" x2="984.47" y2="2150.37" gradientUnits="userSpaceOnUse">
<stop stop-color="#999999"/>
<stop offset="1" stop-color="#7D92FF"/>
</linearGradient>
<linearGradient id="paint24_linear" x1="984.413" y1="142.818" x2="984.413" y2="2154.54" gradientUnits="userSpaceOnUse">
<stop stop-color="#999999"/>
<stop offset="1" stop-color="#7D92FF"/>
</linearGradient>
<linearGradient id="paint25_linear" x1="984.278" y1="138.833" x2="984.278" y2="2158.44" gradientUnits="userSpaceOnUse">
<stop stop-color="#999999"/>
<stop offset="1" stop-color="#7D92FF"/>
</linearGradient>
<linearGradient id="paint26_linear" x1="984.286" y1="135.096" x2="984.286" y2="2162.04" gradientUnits="userSpaceOnUse">
<stop stop-color="#999999"/>
<stop offset="1" stop-color="#7D92FF"/>
</linearGradient>
<linearGradient id="paint27_linear" x1="984.263" y1="131.706" x2="984.263" y2="2165.35" gradientUnits="userSpaceOnUse">
<stop stop-color="#999999"/>
<stop offset="1" stop-color="#7D92FF"/>
</linearGradient>
<linearGradient id="paint28_linear" x1="984.295" y1="128.646" x2="984.295" y2="2168.32" gradientUnits="userSpaceOnUse">
<stop stop-color="#999999"/>
<stop offset="1" stop-color="#7D92FF"/>
</linearGradient>
<linearGradient id="paint29_linear" x1="984.293" y1="125.905" x2="984.293" y2="2170.95" gradientUnits="userSpaceOnUse">
<stop stop-color="#999999"/>
<stop offset="1" stop-color="#7D92FF"/>
</linearGradient>
<linearGradient id="paint30_linear" x1="984.353" y1="123.444" x2="984.353" y2="2173.38" gradientUnits="userSpaceOnUse">
<stop stop-color="#999999"/>
<stop offset="1" stop-color="#7D92FF"/>
</linearGradient>
<linearGradient id="paint31_linear" x1="984.425" y1="121.309" x2="984.425" y2="2175.36" gradientUnits="userSpaceOnUse">
<stop stop-color="#999999"/>
<stop offset="1" stop-color="#7D92FF"/>
</linearGradient>
<linearGradient id="paint32_linear" x1="984.506" y1="119.477" x2="984.506" y2="2177.26" gradientUnits="userSpaceOnUse">
<stop stop-color="#999999"/>
<stop offset="1" stop-color="#7D92FF"/>
</linearGradient>
<linearGradient id="paint33_linear" x1="984.625" y1="117.921" x2="984.625" y2="2178.83" gradientUnits="userSpaceOnUse">
<stop stop-color="#999999"/>
<stop offset="1" stop-color="#7D92FF"/>
</linearGradient>
<linearGradient id="paint34_linear" x1="984.762" y1="116.604" x2="984.762" y2="2180.17" gradientUnits="userSpaceOnUse">
<stop stop-color="#999999"/>
<stop offset="1" stop-color="#7D92FF"/>
</linearGradient>
<linearGradient id="paint35_linear" x1="984.858" y1="115.562" x2="984.858" y2="2181.23" gradientUnits="userSpaceOnUse">
<stop stop-color="#999999"/>
<stop offset="1" stop-color="#7D92FF"/>
</linearGradient>
<linearGradient id="paint36_linear" x1="984.956" y1="114.82" x2="984.956" y2="2182.09" gradientUnits="userSpaceOnUse">
<stop stop-color="#999999"/>
<stop offset="1" stop-color="#7D92FF"/>
</linearGradient>
<linearGradient id="paint37_linear" x1="985.041" y1="114.2" x2="985.041" y2="2182.8" gradientUnits="userSpaceOnUse">
<stop stop-color="#999999"/>
<stop offset="1" stop-color="#7D92FF"/>
</linearGradient>
<linearGradient id="paint38_linear" x1="985.161" y1="113.81" x2="985.161" y2="2183.32" gradientUnits="userSpaceOnUse">
<stop stop-color="#999999"/>
<stop offset="1" stop-color="#7D92FF"/>
</linearGradient>
<linearGradient id="paint39_linear" x1="985.213" y1="113.588" x2="985.213" y2="2183.7" gradientUnits="userSpaceOnUse">
<stop stop-color="#999999"/>
<stop offset="1" stop-color="#7D92FF"/>
</linearGradient>
<linearGradient id="paint40_linear" x1="985.322" y1="113.5" x2="985.322" y2="2183.99" gradientUnits="userSpaceOnUse">
<stop stop-color="#999999"/>
<stop offset="1" stop-color="#7D92FF"/>
</linearGradient>
<linearGradient id="paint41_linear" x1="985.357" y1="113.5" x2="985.357" y2="2184.22" gradientUnits="userSpaceOnUse">
<stop stop-color="#999999"/>
<stop offset="1" stop-color="#7D92FF"/>
</linearGradient>
<linearGradient id="paint42_linear" x1="985.395" y1="113.578" x2="985.395" y2="2184.23" gradientUnits="userSpaceOnUse">
<stop stop-color="#999999"/>
<stop offset="1" stop-color="#7D92FF"/>
</linearGradient>
<clipPath id="clip0">
<rect width="1440" height="1505" fill="white"/>
</clipPath>
</defs>
</svg>
