<svg width="36" height="38" viewBox="0 0 36 38" fill="none" xmlns="http://www.w3.org/2000/svg">
<path fill-rule="evenodd" clip-rule="evenodd" d="M19.4184 32.9995C20.2122 31.5062 20.6613 29.8061 20.6613 28.0024C20.6613 22.0566 15.7808 17.2365 9.76039 17.2365C6.93884 17.2365 4.36767 18.2952 2.43193 20.0323C2.21698 18.9773 2.10413 17.8851 2.10413 16.7666C2.10413 7.78278 9.38427 0.5 18.3648 0.5C27.3453 0.5 34.6254 7.78278 34.6254 16.7666C34.6254 19.283 34.0542 21.6659 33.0345 23.7928L35.874 33.0245C36.1106 33.7938 35.3879 34.5131 34.6198 34.273L25.4569 31.4085C23.6119 32.3044 21.5722 32.8617 19.4184 32.9995Z" fill="black"/>
<path fill-rule="evenodd" clip-rule="evenodd" d="M8.8203 37.1184C13.4204 37.1184 17.1495 33.4167 17.1495 28.8504C17.1495 24.2842 13.4204 20.5825 8.8203 20.5825C4.22021 20.5825 0.491095 24.2842 0.491095 28.8504C0.491095 30.1291 0.783484 31.3399 1.30551 32.4206L0.126628 36.2238C-0.111642 36.9925 0.609435 37.7134 1.37807 37.475L5.18834 36.293C6.28601 36.8218 7.51826 37.1184 8.8203 37.1184Z" fill="black"/>
</svg>
